<svg width="69" height="90" viewBox="0 0 69 90" fill="none" xmlns="http://www.w3.org/2000/svg">
<mask id="path-1-outside-1_94_30" maskUnits="userSpaceOnUse" x="18" y="50" width="52" height="41" fill="black">
<rect fill="white" x="18" y="50" width="52" height="41"/>
<path d="M28.0068 78.502C26.835 73.668 25.8014 69.6234 24.9062 66.3682C24.0111 63.0967 23.2949 61.0622 22.7578 60.2646L20.3164 60.0938C19.8444 58.8568 19.5107 57.335 19.3154 55.5283C19.5921 54.6331 20.113 53.86 20.8779 53.209C21.6429 52.5417 22.5381 52.0371 23.5635 51.6953C24.5889 51.3535 25.6224 51.1826 26.6641 51.1826C29.0404 51.1826 30.8145 52.2731 31.9863 54.4541C32.5234 55.4469 32.9792 56.6432 33.3535 58.043C33.7279 59.4264 34.0778 61.0703 34.4033 62.9746C34.9404 66.181 35.3148 69.0618 35.5264 71.6172C35.738 74.1562 35.9089 76.8581 36.0391 79.7227L36.1367 81.9199H36.5029C36.9098 81.0247 37.3574 79.096 37.8457 76.1338C38.334 73.1715 38.7572 70.0384 39.1152 66.7344C39.4733 63.4141 39.6686 60.9482 39.7012 59.3369L36.625 58.873C36.3971 58.0104 36.2507 57.2373 36.1855 56.5537C36.1204 55.8701 36.0879 55.04 36.0879 54.0635C36.4297 53.6403 36.9993 53.2008 37.7969 52.7451C38.5944 52.2894 39.5221 51.9069 40.5801 51.5977C41.638 51.2884 42.6878 51.1338 43.7295 51.1338C45.1292 51.1338 46.3906 51.3698 47.5137 51.8418C48.653 52.2975 49.5563 52.9811 50.2236 53.8926C50.9072 54.804 51.2572 55.9189 51.2734 57.2373V60.9971C52.0059 63.8454 52.6406 67.1901 53.1777 71.0312C53.7311 74.8561 54.138 78.4775 54.3984 81.8955H54.667C55.0576 80.984 55.4971 79.0472 55.9854 76.085C56.4899 73.1064 56.9294 69.9733 57.3037 66.6855C57.6781 63.3815 57.8734 60.932 57.8896 59.3369L55.0088 58.873C54.7809 58.0104 54.6344 57.2373 54.5693 56.5537C54.5042 55.8701 54.4717 55.04 54.4717 54.0635C54.7972 53.6403 55.3669 53.2008 56.1807 52.7451C56.9945 52.2894 57.9303 51.9069 58.9883 51.5977C60.0625 51.2884 61.1204 51.1338 62.1621 51.1338C64.2943 51.1338 65.8893 51.6872 66.9473 52.7939C68.0052 53.9007 68.5342 55.5853 68.5342 57.8477C68.5342 59.9961 68.1761 62.763 67.46 66.1484C66.7438 69.5339 65.8486 72.7158 64.7744 75.6943C63.8467 78.2985 62.9352 80.5527 62.04 82.457C61.1449 84.3451 60.0381 86.2005 58.7197 88.0234C58.1826 88.5768 57.4746 88.9593 56.5957 89.1709C55.7331 89.3825 54.8379 89.4883 53.9102 89.4883C50.7038 89.4883 48.3356 88.8698 46.8057 87.6328L47.4648 82.6279L45.8779 74.4004C45.5036 72.2357 45.2594 70.5104 45.1455 69.2246L44.8281 69.2002L44.7549 72.3008C44.2178 75.4909 43.5586 78.4531 42.7773 81.1875C42.0124 83.9056 41.1335 86.1842 40.1406 88.0234C39.6686 88.5605 39.0176 88.9349 38.1875 89.1465C37.3574 89.3743 36.5111 89.4883 35.6484 89.4883C32.3118 89.4883 29.96 88.8779 28.5928 87.6572L29.1299 83.0674L28.0068 78.502Z"/>
</mask>
<path d="M28.0068 78.502C26.835 73.668 25.8014 69.6234 24.9062 66.3682C24.0111 63.0967 23.2949 61.0622 22.7578 60.2646L20.3164 60.0938C19.8444 58.8568 19.5107 57.335 19.3154 55.5283C19.5921 54.6331 20.113 53.86 20.8779 53.209C21.6429 52.5417 22.5381 52.0371 23.5635 51.6953C24.5889 51.3535 25.6224 51.1826 26.6641 51.1826C29.0404 51.1826 30.8145 52.2731 31.9863 54.4541C32.5234 55.4469 32.9792 56.6432 33.3535 58.043C33.7279 59.4264 34.0778 61.0703 34.4033 62.9746C34.9404 66.181 35.3148 69.0618 35.5264 71.6172C35.738 74.1562 35.9089 76.8581 36.0391 79.7227L36.1367 81.9199H36.5029C36.9098 81.0247 37.3574 79.096 37.8457 76.1338C38.334 73.1715 38.7572 70.0384 39.1152 66.7344C39.4733 63.4141 39.6686 60.9482 39.7012 59.3369L36.625 58.873C36.3971 58.0104 36.2507 57.2373 36.1855 56.5537C36.1204 55.8701 36.0879 55.04 36.0879 54.0635C36.4297 53.6403 36.9993 53.2008 37.7969 52.7451C38.5944 52.2894 39.5221 51.9069 40.5801 51.5977C41.638 51.2884 42.6878 51.1338 43.7295 51.1338C45.1292 51.1338 46.3906 51.3698 47.5137 51.8418C48.653 52.2975 49.5563 52.9811 50.2236 53.8926C50.9072 54.804 51.2572 55.9189 51.2734 57.2373V60.9971C52.0059 63.8454 52.6406 67.1901 53.1777 71.0312C53.7311 74.8561 54.138 78.4775 54.3984 81.8955H54.667C55.0576 80.984 55.4971 79.0472 55.9854 76.085C56.4899 73.1064 56.9294 69.9733 57.3037 66.6855C57.6781 63.3815 57.8734 60.932 57.8896 59.3369L55.0088 58.873C54.7809 58.0104 54.6344 57.2373 54.5693 56.5537C54.5042 55.8701 54.4717 55.04 54.4717 54.0635C54.7972 53.6403 55.3669 53.2008 56.1807 52.7451C56.9945 52.2894 57.9303 51.9069 58.9883 51.5977C60.0625 51.2884 61.1204 51.1338 62.1621 51.1338C64.2943 51.1338 65.8893 51.6872 66.9473 52.7939C68.0052 53.9007 68.5342 55.5853 68.5342 57.8477C68.5342 59.9961 68.1761 62.763 67.46 66.1484C66.7438 69.5339 65.8486 72.7158 64.7744 75.6943C63.8467 78.2985 62.9352 80.5527 62.04 82.457C61.1449 84.3451 60.0381 86.2005 58.7197 88.0234C58.1826 88.5768 57.4746 88.9593 56.5957 89.1709C55.7331 89.3825 54.8379 89.4883 53.9102 89.4883C50.7038 89.4883 48.3356 88.8698 46.8057 87.6328L47.4648 82.6279L45.8779 74.4004C45.5036 72.2357 45.2594 70.5104 45.1455 69.2246L44.8281 69.2002L44.7549 72.3008C44.2178 75.4909 43.5586 78.4531 42.7773 81.1875C42.0124 83.9056 41.1335 86.1842 40.1406 88.0234C39.6686 88.5605 39.0176 88.9349 38.1875 89.1465C37.3574 89.3743 36.5111 89.4883 35.6484 89.4883C32.3118 89.4883 29.96 88.8779 28.5928 87.6572L29.1299 83.0674L28.0068 78.502Z" fill="#217275"/>
<path d="M28.0068 78.502L27.035 78.7376L27.0358 78.7408L28.0068 78.502ZM24.9062 66.3682L23.9417 66.6321L23.942 66.6333L24.9062 66.3682ZM22.7578 60.2646L23.5872 59.706L23.3146 59.3012L22.8276 59.2671L22.7578 60.2646ZM20.3164 60.0938L19.3821 60.4503L19.6097 61.0467L20.2466 61.0913L20.3164 60.0938ZM19.3154 55.5283L18.36 55.233L18.299 55.4304L18.3212 55.6358L19.3154 55.5283ZM20.8779 53.209L21.5261 53.9706L21.5353 53.9626L20.8779 53.209ZM31.9863 54.4541L31.1054 54.9274L31.1068 54.9299L31.9863 54.4541ZM33.3535 58.043L32.3875 58.3013L32.3882 58.3042L33.3535 58.043ZM34.4033 62.9746L35.3896 62.8094L35.389 62.8061L34.4033 62.9746ZM35.5264 71.6172L34.5298 71.6997L34.5298 71.7002L35.5264 71.6172ZM36.0391 79.7227L37.0381 79.6783L37.038 79.6772L36.0391 79.7227ZM36.1367 81.9199L35.1377 81.9643L35.1802 82.9199H36.1367V81.9199ZM36.5029 81.9199V82.9199H37.1468L37.4133 82.3337L36.5029 81.9199ZM39.1152 66.7344L40.1094 66.8421L40.1095 66.8416L39.1152 66.7344ZM39.7012 59.3369L40.701 59.3571L40.7187 58.479L39.8503 58.3481L39.7012 59.3369ZM36.625 58.873L35.6582 59.1284L35.826 59.7639L36.4759 59.8619L36.625 58.873ZM36.0879 54.0635L35.3099 53.4351L35.0879 53.7101V54.0635H36.0879ZM37.7969 52.7451L38.293 53.6134L37.7969 52.7451ZM47.5137 51.8418L47.1262 52.7637L47.1342 52.767L47.1423 52.7703L47.5137 51.8418ZM50.2236 53.8926L49.4167 54.4834L49.4236 54.4926L50.2236 53.8926ZM51.2734 57.2373H52.2735L52.2734 57.225L51.2734 57.2373ZM51.2734 60.9971H50.2734V61.1236L50.3049 61.2461L51.2734 60.9971ZM53.1777 71.0312L52.1874 71.1697L52.188 71.1744L53.1777 71.0312ZM54.3984 81.8955L53.4013 81.9715L53.4717 82.8955H54.3984V81.8955ZM54.667 81.8955V82.8955H55.3264L55.5861 82.2894L54.667 81.8955ZM55.9854 76.085L54.9994 75.9179L54.9987 75.9223L55.9854 76.085ZM57.3037 66.6855L58.2973 66.7987L58.2974 66.7981L57.3037 66.6855ZM57.8896 59.3369L58.8896 59.3471L58.8984 58.4865L58.0486 58.3496L57.8896 59.3369ZM55.0088 58.873L54.042 59.1284L54.208 59.757L54.8498 59.8603L55.0088 58.873ZM54.4717 54.0635L53.6791 53.4538L53.4717 53.7234V54.0635H54.4717ZM58.9883 51.5977L58.7116 50.6367L58.7077 50.6378L58.9883 51.5977ZM64.7744 75.6943L63.8337 75.3551L63.8324 75.3587L64.7744 75.6943ZM62.04 82.457L62.9436 82.8855L62.945 82.8825L62.04 82.457ZM58.7197 88.0234L59.4373 88.7199L59.4877 88.668L59.53 88.6095L58.7197 88.0234ZM56.5957 89.1709L56.3616 88.1987L56.3575 88.1997L56.5957 89.1709ZM46.8057 87.6328L45.8142 87.5022L45.741 88.058L46.1769 88.4104L46.8057 87.6328ZM47.4648 82.6279L48.4563 82.7585L48.4775 82.5978L48.4467 82.4385L47.4648 82.6279ZM45.8779 74.4004L44.8926 74.5708L44.8942 74.5803L44.896 74.5898L45.8779 74.4004ZM45.1455 69.2246L46.1416 69.1363L46.0668 68.2925L45.2222 68.2276L45.1455 69.2246ZM44.8281 69.2002L44.9048 68.2031L43.8533 68.1223L43.8284 69.1766L44.8281 69.2002ZM44.7549 72.3008L45.741 72.4668L45.7529 72.3961L45.7546 72.3244L44.7549 72.3008ZM42.7773 81.1875L41.8158 80.9128L41.8147 80.9166L42.7773 81.1875ZM40.1406 88.0234L40.8918 88.6836L40.9667 88.5983L41.0206 88.4985L40.1406 88.0234ZM38.1875 89.1465L37.9405 88.1775L37.9316 88.1797L37.9228 88.1822L38.1875 89.1465ZM28.5928 87.6572L27.5996 87.541L27.5392 88.0571L27.9268 88.4032L28.5928 87.6572ZM29.1299 83.0674L30.1231 83.1836L30.1441 83.0041L30.1009 82.8285L29.1299 83.0674ZM28.9787 78.2664C27.8054 73.4266 26.7693 69.3714 25.8705 66.103L23.942 66.6333C24.8336 69.8753 25.8645 73.9093 27.035 78.7376L28.9787 78.2664ZM25.8708 66.1042C25.42 64.4569 25.0101 63.1052 24.641 62.0566C24.2808 61.0333 23.9329 60.2193 23.5872 59.706L21.9284 60.8232C22.1198 61.1075 22.3986 61.7096 22.7545 62.7207C23.1015 63.7066 23.4973 65.0079 23.9417 66.6321L25.8708 66.1042ZM22.8276 59.2671L20.3862 59.0962L20.2466 61.0913L22.688 61.2622L22.8276 59.2671ZM21.2507 59.7372C20.8182 58.6038 20.4989 57.1715 20.3096 55.4208L18.3212 55.6358C18.5226 57.4985 18.8706 59.1097 19.3821 60.4503L21.2507 59.7372ZM20.2708 55.8236C20.4874 55.1231 20.8948 54.5077 21.526 53.9705L20.2298 52.4474C19.3311 53.2123 18.6969 54.1432 18.36 55.233L20.2708 55.8236ZM21.5353 53.9626C22.1942 53.3877 22.9716 52.9467 23.8797 52.644L23.2472 50.7466C22.1046 51.1275 21.0916 51.6956 20.2206 52.4554L21.5353 53.9626ZM23.8797 52.644C24.807 52.3349 25.7339 52.1826 26.6641 52.1826V50.1826C25.5109 50.1826 24.3707 50.3721 23.2472 50.7466L23.8797 52.644ZM26.6641 52.1826C27.694 52.1826 28.5449 52.4171 29.2532 52.8524C29.9636 53.2891 30.5872 53.9629 31.1054 54.9274L32.8672 53.9808C32.2136 52.7643 31.3642 51.8024 30.3005 51.1486C29.2347 50.4934 28.0104 50.1826 26.6641 50.1826V52.1826ZM31.1068 54.9299C31.5979 55.8377 32.028 56.9571 32.3875 58.3013L34.3196 57.7846C33.9304 56.3294 33.449 55.0562 32.8659 53.9783L31.1068 54.9299ZM32.3882 58.3042C32.752 59.6487 33.0957 61.2601 33.4176 63.1431L35.389 62.8061C35.0599 60.8806 34.7037 59.2042 34.3188 57.7818L32.3882 58.3042ZM33.4171 63.1398C33.9507 66.3257 34.321 69.1782 34.5298 71.6997L36.523 71.5347C36.3086 68.9455 35.9301 66.0363 35.3896 62.8094L33.4171 63.1398ZM34.5298 71.7002C34.7402 74.2253 34.9104 76.9145 35.0401 79.7681L37.038 79.6772C36.9073 76.8016 36.7357 74.0872 36.5229 71.5341L34.5298 71.7002ZM35.04 79.7671L35.1377 81.9643L37.1357 81.8755L37.0381 79.6783L35.04 79.7671ZM36.1367 82.9199H36.5029V80.9199H36.1367V82.9199ZM37.4133 82.3337C37.8844 81.2973 38.3482 79.2341 38.8324 76.2964L36.859 75.9711C36.3667 78.9579 35.9353 80.7521 35.5926 81.5061L37.4133 82.3337ZM38.8324 76.2964C39.324 73.3142 39.7496 70.1626 40.1094 66.8421L38.1211 66.6266C37.7648 69.9142 37.344 73.0289 36.859 75.9711L38.8324 76.2964ZM40.1095 66.8416C40.4681 63.5161 40.6675 61.0143 40.701 59.3571L38.7014 59.3167C38.6698 60.8822 38.4785 63.312 38.121 66.6272L40.1095 66.8416ZM39.8503 58.3481L36.7741 57.8842L36.4759 59.8619L39.5521 60.3257L39.8503 58.3481ZM37.5918 58.6177C37.374 57.793 37.2397 57.075 37.181 56.4589L35.1901 56.6485C35.2616 57.3996 35.4203 58.2278 35.6582 59.1284L37.5918 58.6177ZM37.181 56.4589C37.1199 55.8169 37.0879 55.0204 37.0879 54.0635H35.0879C35.0879 55.0597 35.121 55.9234 35.1901 56.6485L37.181 56.4589ZM36.8658 54.6918C37.0936 54.4098 37.5395 54.0439 38.293 53.6134L37.3007 51.8769C36.4592 52.3578 35.7657 52.8708 35.3099 53.4351L36.8658 54.6918ZM38.293 53.6134C39.0106 53.2033 39.8635 52.849 40.8606 52.5575L40.2995 50.6378C39.1808 50.9648 38.1782 51.3755 37.3007 51.8769L38.293 53.6134ZM40.8606 52.5575C41.8327 52.2733 42.7881 52.1338 43.7295 52.1338V50.1338C42.5875 50.1338 41.4433 50.3035 40.2995 50.6378L40.8606 52.5575ZM43.7295 52.1338C45.0158 52.1338 46.1428 52.3503 47.1262 52.7637L47.9011 50.9199C46.6385 50.3892 45.2426 50.1338 43.7295 50.1338V52.1338ZM47.1423 52.7703C48.1233 53.1627 48.8696 53.736 49.4168 54.4833L51.0305 53.3018C50.243 52.2262 49.1827 51.4324 47.8851 50.9133L47.1423 52.7703ZM49.4236 54.4926C49.9606 55.2086 50.2594 56.1088 50.2735 57.2496L52.2734 57.225C52.2549 55.729 51.8538 54.3995 51.0236 53.2926L49.4236 54.4926ZM50.2734 57.2373V60.9971H52.2734V57.2373H50.2734ZM50.3049 61.2461C51.0256 64.0487 51.6539 67.3549 52.1874 71.1697L54.1681 70.8928C53.6273 67.0254 52.9861 63.6421 52.2419 60.748L50.3049 61.2461ZM52.188 71.1744C52.7386 74.9797 53.1428 78.5786 53.4013 81.9715L55.3955 81.8195C55.1332 78.3765 54.7236 74.7325 54.1674 70.8881L52.188 71.1744ZM54.3984 82.8955H54.667V80.8955H54.3984V82.8955ZM55.5861 82.2894C56.0327 81.2475 56.4873 79.1882 56.972 76.2476L54.9987 75.9223C54.5068 78.9062 54.0826 80.7206 53.7478 81.5016L55.5861 82.2894ZM56.9713 76.252C57.4792 73.254 57.9211 70.1028 58.2973 66.7987L56.3101 66.5724C55.9376 69.8438 55.5007 72.9589 54.9994 75.9179L56.9713 76.252ZM58.2974 66.7981C58.6724 63.4883 58.8728 60.9962 58.8896 59.3471L56.8897 59.3267C56.874 60.8677 56.6838 63.2748 56.3101 66.573L58.2974 66.7981ZM58.0486 58.3496L55.1678 57.8858L54.8498 59.8603L57.7307 60.3242L58.0486 58.3496ZM55.9756 58.6177C55.7578 57.793 55.6235 57.075 55.5648 56.4589L53.5738 56.6485C53.6454 57.3996 53.8041 58.2278 54.042 59.1284L55.9756 58.6177ZM55.5648 56.4589C55.5037 55.8169 55.4717 55.0204 55.4717 54.0635H53.4717C53.4717 55.0597 53.5048 55.9234 53.5738 56.6485L55.5648 56.4589ZM55.2643 54.6732C55.4674 54.4092 55.8984 54.0493 56.6693 53.6176L55.6921 51.8726C54.8353 52.3524 54.127 52.8714 53.6791 53.4538L55.2643 54.6732ZM56.6693 53.6176C57.4066 53.2047 58.2706 52.8493 59.2688 52.5575L58.7077 50.6378C57.59 50.9645 56.5823 51.3741 55.6921 51.8726L56.6693 53.6176ZM59.2649 52.5586C60.2558 52.2734 61.2206 52.1338 62.1621 52.1338V50.1338C61.0203 50.1338 59.8692 50.3034 58.7116 50.6367L59.2649 52.5586ZM62.1621 52.1338C64.131 52.1338 65.4195 52.6429 66.2244 53.4849L67.6701 52.103C66.3592 50.7315 64.4575 50.1338 62.1621 50.1338V52.1338ZM66.2244 53.4849C67.0353 54.3333 67.5342 55.7213 67.5342 57.8477H69.5342C69.5342 55.4493 68.9751 53.4682 67.6701 52.103L66.2244 53.4849ZM67.5342 57.8477C67.5342 59.8976 67.1909 62.5883 66.4816 65.9415L68.4383 66.3554C69.1613 62.9378 69.5342 60.0946 69.5342 57.8477H67.5342ZM66.4816 65.9415C65.7741 69.2861 64.891 72.4235 63.8337 75.3551L65.7151 76.0336C66.8063 73.0081 67.7135 69.7816 68.4383 66.3554L66.4816 65.9415ZM63.8324 75.3587C62.9124 77.9412 62.013 80.1641 61.135 82.0316L62.945 82.8825C63.8575 80.9414 64.781 78.6558 65.7164 76.0299L63.8324 75.3587ZM61.1365 82.0286C60.2694 83.8573 59.1947 85.6603 57.9094 87.4374L59.53 88.6095C60.8815 86.7407 62.0203 84.8328 62.9436 82.8855L61.1365 82.0286ZM58.0021 87.327C57.6182 87.7225 57.0888 88.0236 56.3616 88.1987L56.8298 90.1431C57.8605 89.895 58.747 89.4311 59.4373 88.7199L58.0021 87.327ZM56.3575 88.1997C55.5762 88.3913 54.7612 88.4883 53.9102 88.4883V90.4883C54.9146 90.4883 55.8899 90.3737 56.8339 90.1421L56.3575 88.1997ZM53.9102 88.4883C50.799 88.4883 48.7047 87.8822 47.4344 86.8552L46.1769 88.4104C47.9666 89.8574 50.6085 90.4883 53.9102 90.4883V88.4883ZM47.7971 87.7634L48.4563 82.7585L46.4734 82.4973L45.8142 87.5022L47.7971 87.7634ZM48.4467 82.4385L46.8598 74.211L44.896 74.5898L46.4829 82.8173L48.4467 82.4385ZM46.8633 74.23C46.4909 72.0765 46.252 70.3822 46.1416 69.1363L44.1494 69.3129C44.2669 70.6386 44.5163 72.3949 44.8926 74.5708L46.8633 74.23ZM45.2222 68.2276L44.9048 68.2031L44.7514 70.1973L45.0688 70.2217L45.2222 68.2276ZM43.8284 69.1766L43.7552 72.2772L45.7546 72.3244L45.8278 69.2238L43.8284 69.1766ZM43.7688 72.1348C43.237 75.2931 42.5856 78.2186 41.8158 80.9128L43.7389 81.4622C44.5316 78.6876 45.1985 75.6887 45.741 72.4668L43.7688 72.1348ZM41.8147 80.9166C41.0633 83.5868 40.2088 85.7921 39.2607 87.5484L41.0206 88.4985C42.0582 86.5764 42.9615 84.2244 43.7399 81.4584L41.8147 80.9166ZM39.3895 87.3633C39.0751 87.7211 38.6146 88.0056 37.9405 88.1775L38.4345 90.1155C39.4205 89.8642 40.2622 89.4 40.8918 88.6836L39.3895 87.3633ZM37.9228 88.1822C37.1791 88.3863 36.4218 88.4883 35.6484 88.4883V90.4883C36.6003 90.4883 37.5357 90.3624 38.4522 90.1108L37.9228 88.1822ZM35.6484 88.4883C32.3773 88.4883 30.3423 87.8787 29.2588 86.9113L27.9268 88.4032C29.5776 89.8771 32.2464 90.4883 35.6484 90.4883V88.4883ZM29.586 87.7735L30.1231 83.1836L28.1367 82.9512L27.5996 87.541L29.586 87.7735ZM30.1009 82.8285L28.9779 78.2631L27.0358 78.7408L28.1588 83.3063L30.1009 82.8285Z" fill="#FFCED2" mask="url(#path-1-outside-1_94_30)"/>
<mask id="path-3-outside-2_94_30" maskUnits="userSpaceOnUse" x="-1" y="11" width="48" height="41" fill="black">
<rect fill="white" x="-1" y="11" width="48" height="41"/>
<path d="M0.463867 45.874C0.463867 45.1253 0.569661 44.3604 0.78125 43.5791C0.992839 42.7816 1.27767 42.1224 1.63574 41.6016L3.97949 42.041L6.61621 19.1895L2.85645 18.6523C2.5472 17.8385 2.39258 17.0085 2.39258 16.1621C2.39258 15.2995 2.56348 14.4206 2.90527 13.5254C3.7679 13.1185 5.24089 12.793 7.32422 12.5488C9.42383 12.2884 11.2874 12.1582 12.915 12.1582C14.4287 12.1582 16.2923 12.1908 18.5059 12.2559L19.3604 12.6465C19.7184 13.6556 20.2067 15.389 20.8252 17.8467C21.46 20.2881 22.5342 24.6012 24.0479 30.7861C24.292 31.7464 24.5605 32.8369 24.8535 34.0576C25.6348 31.2256 26.5951 27.2217 27.7344 22.0459L28.3447 19.3848H28.4668L24.4141 18.7012C24.0234 17.7897 23.8281 16.8132 23.8281 15.7715C23.8281 15.0879 23.9176 14.3473 24.0967 13.5498C25.6755 13.0452 27.3193 12.6872 29.0283 12.4756C30.7536 12.264 32.6335 12.1582 34.668 12.1582H35.4736C36.3363 12.1582 37.5651 12.1908 39.1602 12.2559L40.0146 12.6465C41.0563 16.4225 42.0492 21.0042 42.9932 26.3916C43.9535 31.7627 44.6777 36.6943 45.166 41.1865L45.2393 41.7969C45.2555 41.9108 45.2962 42.3014 45.3613 42.9688C45.4264 43.6198 45.459 44.2464 45.459 44.8486C45.459 45.5811 45.3857 46.3053 45.2393 47.0215C44.9951 48.0957 44.5557 48.9827 43.9209 49.6826C43.2861 49.943 42.6188 50.1383 41.9189 50.2686C41.2354 50.415 40.4378 50.4883 39.5264 50.4883C38.6312 50.4883 37.736 50.3825 36.8408 50.1709C35.9619 49.9756 35.376 49.6826 35.083 49.292L35.9619 43.7012L34.4971 28.3447L34.6191 20.166H33.8623L32.666 28.54C31.071 34.4482 29.6143 39.0218 28.2959 42.2607C28.7516 43.1559 29.1423 44.1488 29.4678 45.2393C29.8096 46.3298 30.0212 47.3958 30.1025 48.4375C29.4189 49.0885 28.4831 49.5931 27.2949 49.9512C26.123 50.3092 24.8779 50.4883 23.5596 50.4883C22.2087 50.4883 20.9717 50.3011 19.8486 49.9268C18.7419 49.5524 17.9362 49.0316 17.4316 48.3643C17.513 46.7204 17.9199 45.1335 18.6523 43.6035L14.3066 27.9053L12.5 20.5078L11.6699 20.6299L12.8662 28.9062C12.8011 31.7871 12.6953 34.7168 12.5488 37.6953C12.4023 40.6738 12.2396 43.0339 12.0605 44.7754H12.085C11.9548 45.8008 11.6048 46.7122 11.0352 47.5098C10.4818 48.291 9.77376 48.9014 8.91113 49.3408C8.06478 49.7803 7.14518 50 6.15234 50C3.54818 50 1.66829 48.877 0.512695 46.6309C0.480143 46.3053 0.463867 46.0531 0.463867 45.874Z"/>
</mask>
<path d="M0.463867 45.874C0.463867 45.1253 0.569661 44.3604 0.78125 43.5791C0.992839 42.7816 1.27767 42.1224 1.63574 41.6016L3.97949 42.041L6.61621 19.1895L2.85645 18.6523C2.5472 17.8385 2.39258 17.0085 2.39258 16.1621C2.39258 15.2995 2.56348 14.4206 2.90527 13.5254C3.7679 13.1185 5.24089 12.793 7.32422 12.5488C9.42383 12.2884 11.2874 12.1582 12.915 12.1582C14.4287 12.1582 16.2923 12.1908 18.5059 12.2559L19.3604 12.6465C19.7184 13.6556 20.2067 15.389 20.8252 17.8467C21.46 20.2881 22.5342 24.6012 24.0479 30.7861C24.292 31.7464 24.5605 32.8369 24.8535 34.0576C25.6348 31.2256 26.5951 27.2217 27.7344 22.0459L28.3447 19.3848H28.4668L24.4141 18.7012C24.0234 17.7897 23.8281 16.8132 23.8281 15.7715C23.8281 15.0879 23.9176 14.3473 24.0967 13.5498C25.6755 13.0452 27.3193 12.6872 29.0283 12.4756C30.7536 12.264 32.6335 12.1582 34.668 12.1582H35.4736C36.3363 12.1582 37.5651 12.1908 39.1602 12.2559L40.0146 12.6465C41.0563 16.4225 42.0492 21.0042 42.9932 26.3916C43.9535 31.7627 44.6777 36.6943 45.166 41.1865L45.2393 41.7969C45.2555 41.9108 45.2962 42.3014 45.3613 42.9688C45.4264 43.6198 45.459 44.2464 45.459 44.8486C45.459 45.5811 45.3857 46.3053 45.2393 47.0215C44.9951 48.0957 44.5557 48.9827 43.9209 49.6826C43.2861 49.943 42.6188 50.1383 41.9189 50.2686C41.2354 50.415 40.4378 50.4883 39.5264 50.4883C38.6312 50.4883 37.736 50.3825 36.8408 50.1709C35.9619 49.9756 35.376 49.6826 35.083 49.292L35.9619 43.7012L34.4971 28.3447L34.6191 20.166H33.8623L32.666 28.54C31.071 34.4482 29.6143 39.0218 28.2959 42.2607C28.7516 43.1559 29.1423 44.1488 29.4678 45.2393C29.8096 46.3298 30.0212 47.3958 30.1025 48.4375C29.4189 49.0885 28.4831 49.5931 27.2949 49.9512C26.123 50.3092 24.8779 50.4883 23.5596 50.4883C22.2087 50.4883 20.9717 50.3011 19.8486 49.9268C18.7419 49.5524 17.9362 49.0316 17.4316 48.3643C17.513 46.7204 17.9199 45.1335 18.6523 43.6035L14.3066 27.9053L12.5 20.5078L11.6699 20.6299L12.8662 28.9062C12.8011 31.7871 12.6953 34.7168 12.5488 37.6953C12.4023 40.6738 12.2396 43.0339 12.0605 44.7754H12.085C11.9548 45.8008 11.6048 46.7122 11.0352 47.5098C10.4818 48.291 9.77376 48.9014 8.91113 49.3408C8.06478 49.7803 7.14518 50 6.15234 50C3.54818 50 1.66829 48.877 0.512695 46.6309C0.480143 46.3053 0.463867 46.0531 0.463867 45.874Z" fill="#217275"/>
<path d="M0.78125 43.5791L1.74649 43.8405L1.74781 43.8355L0.78125 43.5791ZM1.63574 41.6016L1.82003 40.6187L1.18039 40.4988L0.8117 41.035L1.63574 41.6016ZM3.97949 42.041L3.7952 43.0239L4.8499 43.2216L4.9729 42.1556L3.97949 42.041ZM6.61621 19.1895L7.60962 19.3041L7.72119 18.3372L6.75763 18.1995L6.61621 19.1895ZM2.85645 18.6523L1.92166 19.0076L2.13116 19.5589L2.71502 19.6423L2.85645 18.6523ZM2.90527 13.5254L2.47865 12.621L2.11463 12.7927L1.97106 13.1687L2.90527 13.5254ZM7.32422 12.5488L7.44061 13.5421L7.44731 13.5412L7.32422 12.5488ZM18.5059 12.2559L18.9216 11.3464L18.7376 11.2622L18.5353 11.2563L18.5059 12.2559ZM19.3604 12.6465L20.3028 12.3121L20.1612 11.913L19.7761 11.737L19.3604 12.6465ZM20.8252 17.8467L19.8554 18.0907L19.8574 18.0983L20.8252 17.8467ZM24.0479 30.7861L23.0765 31.0239L23.0787 31.0325L24.0479 30.7861ZM24.8535 34.0576L23.8811 34.291L25.8175 34.3235L24.8535 34.0576ZM27.7344 22.0459L26.7596 21.8223L26.7578 21.8309L27.7344 22.0459ZM28.3447 19.3848V18.3848H27.5481L27.37 19.1612L28.3447 19.3848ZM28.4668 19.3848V20.3848L28.6331 18.3987L28.4668 19.3848ZM24.4141 18.7012L23.4949 19.0951L23.7098 19.5965L24.2477 19.6872L24.4141 18.7012ZM24.0967 13.5498L23.7923 12.5973L23.2465 12.7717L23.121 13.3308L24.0967 13.5498ZM29.0283 12.4756L28.9066 11.483L28.9054 11.4832L29.0283 12.4756ZM39.1602 12.2559L39.5759 11.3464L39.3972 11.2647L39.2009 11.2567L39.1602 12.2559ZM40.0146 12.6465L40.9786 12.3806L40.8546 11.9309L40.4304 11.737L40.0146 12.6465ZM42.9932 26.3916L42.0082 26.5642L42.0088 26.5676L42.9932 26.3916ZM45.166 41.1865L44.1718 41.2946L44.1731 41.3057L45.166 41.1865ZM45.2393 41.7969L44.2464 41.916L44.2477 41.9272L44.2493 41.9383L45.2393 41.7969ZM45.3613 42.9688L44.3661 43.0658L44.3663 43.0683L45.3613 42.9688ZM45.2393 47.0215L46.2144 47.2431L46.2168 47.2325L46.219 47.2219L45.2393 47.0215ZM43.9209 49.6826L44.3005 50.6078L44.5097 50.5219L44.6616 50.3544L43.9209 49.6826ZM41.9189 50.2686L41.736 49.2854L41.7227 49.2879L41.7094 49.2908L41.9189 50.2686ZM36.8408 50.1709L37.0709 49.1976L37.0578 49.1947L36.8408 50.1709ZM35.083 49.292L34.0951 49.1367L34.0295 49.554L34.283 49.892L35.083 49.292ZM35.9619 43.7012L36.9498 43.8565L36.9694 43.7318L36.9574 43.6062L35.9619 43.7012ZM34.4971 28.3447L33.4972 28.3298L33.4964 28.3849L33.5016 28.4397L34.4971 28.3447ZM34.6191 20.166L35.619 20.1809L35.6342 19.166H34.6191V20.166ZM33.8623 20.166V19.166H32.995L32.8724 20.0246L33.8623 20.166ZM32.666 28.54L33.6315 28.8007L33.6473 28.7418L33.656 28.6815L32.666 28.54ZM28.2959 42.2607L27.3697 41.8837L27.1974 42.3071L27.4047 42.7144L28.2959 42.2607ZM29.4678 45.2393L28.5095 45.5253L28.5135 45.5383L29.4678 45.2393ZM30.1025 48.4375L30.7922 49.1616L31.1365 48.8337L31.0995 48.3596L30.1025 48.4375ZM27.2949 49.9512L27.0064 48.9937L27.0027 48.9948L27.2949 49.9512ZM19.8486 49.9268L19.5282 50.874L19.5324 50.8754L19.8486 49.9268ZM17.4316 48.3643L16.4329 48.3148L16.4149 48.6776L16.634 48.9674L17.4316 48.3643ZM18.6523 43.6035L19.5543 44.0353L19.716 43.6976L19.6161 43.3367L18.6523 43.6035ZM14.3066 27.9053L13.3352 28.1425L13.3388 28.1574L13.3429 28.1721L14.3066 27.9053ZM12.5 20.5078L13.4714 20.2706L13.2554 19.386L12.3545 19.5185L12.5 20.5078ZM11.6699 20.6299L11.5244 19.6405L10.5375 19.7857L10.6802 20.7729L11.6699 20.6299ZM12.8662 28.9062L13.866 28.9288L13.8678 28.8456L13.8559 28.7632L12.8662 28.9062ZM12.0605 44.7754L11.0658 44.6731L10.9525 45.7754H12.0605V44.7754ZM12.085 44.7754L13.077 44.9014L13.22 43.7754H12.085V44.7754ZM11.0352 47.5098L10.2214 46.9285L10.2191 46.9317L11.0352 47.5098ZM8.91113 49.3408L8.45719 48.4498L8.45032 48.4533L8.91113 49.3408ZM0.512695 46.6309L-0.482342 46.7304L-0.463437 46.9194L-0.376518 47.0884L0.512695 46.6309ZM1.46387 45.874C1.46387 45.2205 1.55611 44.5434 1.74648 43.8405L-0.183976 43.3177C-0.416788 44.1773 -0.536133 45.0302 -0.536133 45.874H1.46387ZM1.74781 43.8355C1.9385 43.1168 2.18306 42.5706 2.45978 42.1681L0.8117 41.035C0.372283 41.6742 0.0471769 42.4464 -0.185312 43.3227L1.74781 43.8355ZM1.45145 42.5844L3.7952 43.0239L4.16378 41.0581L1.82003 40.6187L1.45145 42.5844ZM4.9729 42.1556L7.60962 19.3041L5.6228 19.0748L2.98608 41.9264L4.9729 42.1556ZM6.75763 18.1995L2.99787 17.6624L2.71502 19.6423L6.47479 20.1794L6.75763 18.1995ZM3.79123 18.2971C3.52385 17.5935 3.39258 16.8836 3.39258 16.1621H1.39258C1.39258 17.1333 1.57056 18.0836 1.92166 19.0076L3.79123 18.2971ZM3.39258 16.1621C3.39258 15.4342 3.53638 14.676 3.83949 13.8821L1.97106 13.1687C1.59057 14.1652 1.39258 15.1648 1.39258 16.1621H3.39258ZM3.33189 14.4298C4.03586 14.0978 5.36736 13.785 7.44061 13.542L7.20783 11.5556C5.11441 11.8009 3.49995 12.1392 2.47865 12.621L3.33189 14.4298ZM7.44731 13.5412C9.51746 13.2845 11.3386 13.1582 12.915 13.1582V11.1582C11.2362 11.1582 9.3302 11.2924 7.20113 11.5564L7.44731 13.5412ZM12.915 13.1582C14.4156 13.1582 16.2687 13.1905 18.4765 13.2554L18.5353 11.2563C16.316 11.191 14.4419 11.1582 12.915 11.1582V13.1582ZM18.0901 13.1653L18.9446 13.556L19.7761 11.737L18.9216 11.3464L18.0901 13.1653ZM18.4179 12.9809C18.7586 13.9411 19.2371 15.6337 19.8554 18.0907L21.795 17.6026C21.1763 15.1443 20.6782 13.3701 20.3028 12.3121L18.4179 12.9809ZM19.8574 18.0983C20.4901 20.532 21.5628 24.8387 23.0765 31.0239L25.0192 30.5484C23.5056 24.3638 22.4298 20.0442 21.793 17.595L19.8574 18.0983ZM23.0787 31.0325C23.3215 31.9875 23.5889 33.0736 23.8811 34.291L25.8259 33.8242C25.5322 32.6003 25.2625 31.5053 25.017 30.5397L23.0787 31.0325ZM25.8175 34.3235C26.6057 31.4664 27.5704 27.4425 28.711 22.2609L26.7578 21.8309C25.6197 27.0008 24.6638 30.9848 23.8895 33.7917L25.8175 34.3235ZM28.7091 22.2695L29.3194 19.6083L27.37 19.1612L26.7597 21.8223L28.7091 22.2695ZM28.3447 20.3848H28.4668V18.3848H28.3447V20.3848ZM28.6331 18.3987L24.5804 17.7151L24.2477 19.6872L28.3005 20.3708L28.6331 18.3987ZM25.3332 18.3073C24.9986 17.5265 24.8281 16.6847 24.8281 15.7715H22.8281C22.8281 16.9416 23.0483 18.0529 23.4949 19.0951L25.3332 18.3073ZM24.8281 15.7715C24.8281 15.1742 24.9065 14.508 25.0724 13.7688L23.121 13.3308C22.9288 14.1867 22.8281 15.0015 22.8281 15.7715H24.8281ZM24.4011 14.5023C25.9185 14.0174 27.5014 13.6723 29.1512 13.468L28.9054 11.4832C27.1372 11.7021 25.4324 12.0731 23.7923 12.5973L24.4011 14.5023ZM29.15 13.4681C30.8288 13.2623 32.6675 13.1582 34.668 13.1582V11.1582C32.5994 11.1582 30.6784 11.2657 28.9066 11.483L29.15 13.4681ZM34.668 13.1582H35.4736V11.1582H34.668V13.1582ZM35.4736 13.1582C36.3158 13.1582 37.5286 13.1901 39.1194 13.255L39.2009 11.2567C37.6016 11.1914 36.3568 11.1582 35.4736 11.1582V13.1582ZM38.7444 13.1653L39.5989 13.556L40.4304 11.737L39.5759 11.3464L38.7444 13.1653ZM39.0507 12.9124C40.0813 16.6483 41.0677 21.197 42.0082 26.5642L43.9782 26.219C43.0306 20.8115 42.0314 16.1967 40.9786 12.3806L39.0507 12.9124ZM42.0088 26.5676C42.9658 31.9206 43.6865 36.8292 44.1719 41.2946L46.1602 41.0785C45.669 36.5594 44.9411 31.6048 43.9776 26.2156L42.0088 26.5676ZM44.1731 41.3057L44.2464 41.916L46.2321 41.6777L46.1589 41.0674L44.1731 41.3057ZM44.2493 41.9383C44.2616 42.024 44.2996 42.385 44.3661 43.0658L46.3566 42.8717C46.2928 42.2179 46.2495 41.7976 46.2292 41.6555L44.2493 41.9383ZM44.3663 43.0683C44.4284 43.689 44.459 44.2824 44.459 44.8486H46.459C46.459 44.2105 46.4245 43.5505 46.3564 42.8692L44.3663 43.0683ZM44.459 44.8486C44.459 45.5139 44.3925 46.171 44.2595 46.8211L46.219 47.2219C46.379 46.4397 46.459 45.6482 46.459 44.8486H44.459ZM44.2641 46.7999C44.0517 47.7344 43.6815 48.4581 43.1802 49.0108L44.6616 50.3544C45.4298 49.5074 45.9385 48.457 46.2144 47.2431L44.2641 46.7999ZM43.5413 48.7575C42.9723 48.9909 42.3711 49.1673 41.736 49.2854L42.1019 51.2517C42.8666 51.1094 43.6 50.8952 44.3005 50.6078L43.5413 48.7575ZM41.7094 49.2908C41.1118 49.4188 40.3874 49.4883 39.5264 49.4883V51.4883C40.4883 51.4883 41.3589 51.4113 42.1285 51.2464L41.7094 49.2908ZM39.5264 49.4883C38.7108 49.4883 37.8927 49.392 37.0708 49.1977L36.6108 51.1441C37.5793 51.373 38.5516 51.4883 39.5264 51.4883V49.4883ZM37.0578 49.1947C36.238 49.0126 35.9534 48.7859 35.883 48.692L34.283 49.892C34.7985 50.5793 35.6858 50.9386 36.6239 51.1471L37.0578 49.1947ZM36.0709 49.4473L36.9498 43.8565L34.974 43.5459L34.0951 49.1367L36.0709 49.4473ZM36.9574 43.6062L35.4925 28.2498L33.5016 28.4397L34.9664 43.7961L36.9574 43.6062ZM35.497 28.3596L35.619 20.1809L33.6193 20.1511L33.4972 28.3298L35.497 28.3596ZM34.6191 19.166H33.8623V21.166H34.6191V19.166ZM32.8724 20.0246L31.6761 28.3986L33.656 28.6815L34.8523 20.3074L32.8724 20.0246ZM31.7006 28.2794C30.1096 34.1726 28.6653 38.7007 27.3697 41.8837L29.2221 42.6377C30.5632 39.3429 32.0324 34.7239 33.6315 28.8007L31.7006 28.2794ZM27.4047 42.7144C27.8298 43.5493 28.1991 44.4851 28.5096 45.5253L30.426 44.9532C30.0855 43.8124 29.6735 42.7625 29.1871 41.8071L27.4047 42.7144ZM28.5135 45.5383C28.8349 46.5636 29.0306 47.5555 29.1056 48.5154L31.0995 48.3596C31.0117 47.2362 30.7842 46.0959 30.422 44.9402L28.5135 45.5383ZM29.4129 47.7134C28.8728 48.2277 28.0898 48.6672 27.0064 48.9937L27.5835 50.9086C28.8764 50.519 29.9651 49.9494 30.7922 49.1616L29.4129 47.7134ZM27.0027 48.9948C25.9324 49.3218 24.7864 49.4883 23.5596 49.4883V51.4883C24.9695 51.4883 26.3136 51.2966 27.5871 50.9075L27.0027 48.9948ZM23.5596 49.4883C22.3012 49.4883 21.1727 49.314 20.1649 48.9781L19.5324 50.8754C20.7707 51.2882 22.1161 51.4883 23.5596 51.4883V49.4883ZM20.169 48.9795C19.1795 48.6448 18.5736 48.2165 18.2293 47.7612L16.634 48.9674C17.2988 49.8466 18.3042 50.46 19.5282 50.874L20.169 48.9795ZM18.4304 48.4137C18.505 46.9065 18.8774 45.4492 19.5543 44.0353L17.7504 43.1717C16.9624 44.8177 16.521 46.5342 16.4329 48.3148L18.4304 48.4137ZM19.6161 43.3367L15.2704 27.6385L13.3429 28.1721L17.6886 43.8703L19.6161 43.3367ZM15.2781 27.668L13.4714 20.2706L11.5286 20.7451L13.3352 28.1425L15.2781 27.668ZM12.3545 19.5185L11.5244 19.6405L11.8154 21.6192L12.6455 21.4972L12.3545 19.5185ZM10.6802 20.7729L11.8765 29.0493L13.8559 28.7632L12.6596 20.4868L10.6802 20.7729ZM11.8665 28.8837C11.8016 31.7554 11.6961 34.6762 11.55 37.6462L13.5476 37.7444C13.6945 34.7574 13.8006 31.8188 13.866 28.9288L11.8665 28.8837ZM11.55 37.6462C11.4039 40.6174 11.2422 42.9573 11.0658 44.6731L13.0553 44.8777C13.237 43.1104 13.4008 40.7303 13.5476 37.7444L11.55 37.6462ZM12.0605 45.7754H12.085V43.7754H12.0605V45.7754ZM11.0929 44.6494C10.9824 45.5199 10.6896 46.2731 10.2214 46.9285L11.8489 48.091C12.52 47.1514 12.9271 46.0817 13.077 44.9014L11.0929 44.6494ZM10.2191 46.9317C9.76041 47.5793 9.17726 48.083 8.45721 48.4498L9.36506 50.2319C10.3703 49.7198 11.2031 49.0027 11.8512 48.0878L10.2191 46.9317ZM8.45032 48.4533C7.75225 48.8158 6.99159 49 6.15234 49V51C7.29877 51 8.37731 50.7448 9.37195 50.2283L8.45032 48.4533ZM6.15234 49C4.99645 49 4.05998 48.752 3.30216 48.2992C2.54608 47.8476 1.90759 47.1562 1.40191 46.1734L-0.376518 47.0884C0.273402 48.3516 1.15265 49.3448 2.27645 50.0162C3.39852 50.6865 4.70407 51 6.15234 51V49ZM1.50773 46.5314C1.47626 46.2167 1.46387 46.0032 1.46387 45.874H-0.536133C-0.536133 46.1029 -0.515979 46.394 -0.482342 46.7304L1.50773 46.5314Z" fill="#FFCED2" mask="url(#path-3-outside-2_94_30)"/>
</svg>
