<?xml version="1.0" encoding="UTF-8"?>
<svg id="Layer_1" data-name="Layer 1" xmlns="http://www.w3.org/2000/svg" viewBox="0 0 54.48 49.26">
  <defs>
    <style>
      .cls-1 {
        fill: #533512;
      }

      .cls-1, .cls-2, .cls-3, .cls-4, .cls-5 {
        stroke-width: 0px;
      }

      .cls-2 {
        fill: #48260e;
      }

      .cls-3 {
        fill: #fee05f;
      }

      .cls-4 {
        fill: #694118;
      }

      .cls-5 {
        fill: #d278b1;
      }
    </style>
  </defs>
  <ellipse class="cls-5" cx="27.38" cy="7.27" rx="6.42" ry="7.27"/>
  <ellipse class="cls-5" cx="27.38" cy="42.82" rx="6.42" ry="7.27"/>
  <ellipse class="cls-5" cx="47.21" cy="26.38" rx="7.27" ry="6.42"/>
  <ellipse class="cls-5" cx="7.27" cy="26.38" rx="7.27" ry="6.42"/>
  <ellipse class="cls-5" cx="39.94" cy="38.52" rx="6.42" ry="7.27" transform="translate(-15.54 39.52) rotate(-45)"/>
  <ellipse class="cls-5" cx="13.39" cy="11.98" rx="6.42" ry="7.27" transform="translate(-4.55 12.98) rotate(-45)"/>
  <ellipse class="cls-5" cx="13.39" cy="39.75" rx="7.27" ry="6.42" transform="translate(-26 25.34) rotate(-51.29)"/>
  <ellipse class="cls-5" cx="42.1" cy="11.98" rx="7.27" ry="6.42" transform="translate(6.43 37.34) rotate(-51.29)"/>
  <circle class="cls-3" cx="27.38" cy="25.37" r="17.45"/>
  <ellipse class="cls-2" cx="23.03" cy="20.86" rx="2.08" ry="3.34"/>
  <ellipse class="cls-1" cx="31.72" cy="20.86" rx="2.08" ry="3.34"/>
  <g>
    <path class="cls-4" d="M26.67,35.44c3.81.29,6.97-6.93,7.15-6.72s-3.38,8.21-7.2,7.92-6.72-6.44-6.58-6.8c.22-.55,2.81,5.32,6.63,5.6Z"/>
    <path class="cls-4" d="M20.04,29.84c.48-.31.15-1.55.19-1.54s.4,1.4-.08,1.71-1.43-.25-1.45-.31c-.03-.09.86.45,1.34.15Z"/>
    <path class="cls-4" d="M33.77,28.47c.47.33,1.49-.45,1.5-.41s-1.14.91-1.61.58-.31-1.42-.27-1.46c.08-.06-.09.96.37,1.29Z"/>
  </g>
</svg>