<?xml version="1.0" encoding="UTF-8"?>
<svg id="Layer_1" data-name="Layer 1" xmlns="http://www.w3.org/2000/svg" viewBox="0 0 355.95 325.73">
  <defs>
    <style>
      .cls-1 {
        fill: #00b593;
      }

      .cls-1, .cls-2, .cls-3, .cls-4, .cls-5 {
        stroke-width: 0px;
      }

      .cls-2 {
        fill: #006272;
      }

      .cls-3 {
        fill: #f3726b;
      }

      .cls-4 {
        fill: #ffca6b;
      }

      .cls-5 {
        fill: #fee8d4;
      }
    </style>
  </defs>
  <rect class="cls-5" x="-1.02" width="359.11" height="325.73"/>
  <g>
    <g>
      <path class="cls-3" d="M183.86,507.01c10.29,0,20.57,0,30.86,0-40.72-88.39-54.96-154.59-55.67-209.43-.73-54.86,12.03-98.42,24.81-141.95-20.17,40.64-40.33,81.31-49.17,135.46-8.86,54.13-6.38,121.79,18.31,215.93,10.29,0,20.57,0,30.86,0Z"/>
      <path class="cls-3" d="M535.25,155.62c0-10.29,0-20.57,0-30.86-88.39,40.72-154.59,54.96-209.43,55.67-54.86.73-98.42-12.03-141.95-24.81,40.64,20.17,81.31,40.33,135.46,49.17,54.13,8.86,121.79,6.38,215.93-18.31,0-10.29,0-20.57,0-30.86Z"/>
      <path class="cls-3" d="M-167.52,155.62c0,10.29,0,20.57,0,30.86,88.39-40.72,154.59-54.96,209.43-55.67,54.86-.73,98.42,12.03,141.95,24.81-40.64-20.17-81.31-40.33-135.46-49.17-54.13-8.86-121.79-6.38-215.93,18.31,0,10.29,0,20.57,0,30.86Z"/>
      <path class="cls-3" d="M183.86-195.76c-10.29,0-20.57,0-30.86,0,40.72,88.39,54.96,154.59,55.67,209.43.73,54.86-12.03,98.42-24.81,141.95,20.17-40.64,40.33-81.31,49.17-135.46,8.86-54.13,6.38-121.79-18.31-215.93-10.29,0-20.57,0-30.86,0Z"/>
    </g>
    <g>
      <path class="cls-2" d="M289.74,480.34c7.69-3.96,15.5-7.66,23.5-11.15-53.26-63.95-87.45-120.87-105.37-171.79-18.38-51.09-21.43-96.52-24.01-141.78-5.3,45.05-10.41,90.2-.75,143.98,9.49,53.68,34.12,116.21,83.86,193.39,7.51-4.49,15.08-8.7,22.77-12.65Z"/>
      <path class="cls-2" d="M508.58,49.74c-3.96-7.69-7.66-15.5-11.15-23.5-63.95,53.26-120.87,87.45-171.79,105.38-51.09,18.38-96.52,21.43-141.78,24.01,45.05,5.3,90.2,10.41,143.98.75,53.68-9.49,116.21-34.12,193.39-83.86-4.49-7.51-8.7-15.08-12.65-22.77Z"/>
      <path class="cls-2" d="M-140.86,261.5c3.96,7.69,7.66,15.5,11.15,23.5,63.95-53.26,120.87-87.45,171.79-105.38,51.09-18.38,96.52-21.43,141.78-24.01-45.05-5.3-90.2-10.41-143.98-.75-53.68,9.49-116.21,34.12-193.39,83.86,4.49,7.51,8.7,15.08,12.66,22.77Z"/>
      <path class="cls-2" d="M77.98-169.1c-7.69,3.96-15.5,7.66-23.5,11.15C107.73-94,141.93-37.08,159.85,13.84c18.38,51.09,21.43,96.52,24.01,141.78,5.3-45.05,10.41-90.2.75-143.99-9.49-53.68-34.12-116.21-83.86-193.39-7.51,4.49-15.08,8.7-22.77,12.66Z"/>
    </g>
    <g>
      <path class="cls-4" d="M392.72,408.07c7.24-6.12,15.01-12.21,23.33-18.42-63.12-37.32-116.41-75.32-152.64-114.49-37.05-39.12-58.72-79.29-79.54-119.53,13.5,43.25,27.81,86.59,57.52,131.57,28.91,44.9,74.84,91.61,131.24,139.44,6.17-6.31,12.87-12.45,20.1-18.56Z"/>
      <path class="cls-4" d="M436.31-53.24c-6.12-7.24-12.21-15.01-18.42-23.33-37.32,63.12-75.32,116.41-114.49,152.64-39.12,37.05-79.29,58.72-119.53,79.54,43.25-13.5,86.59-27.81,131.57-57.52,44.9-28.91,91.61-74.84,139.44-131.24-6.31-6.17-12.45-12.87-18.56-20.1Z"/>
      <path class="cls-4" d="M-68.58,364.48c6.12,7.24,12.21,15.01,18.42,23.33,37.32-63.12,75.32-116.41,114.49-152.64,39.12-37.05,79.29-58.72,119.53-79.54-43.25,13.5-86.59,27.81-131.57,57.52-44.9,28.91-91.61,74.84-139.44,131.24,6.31,6.17,12.45,12.87,18.56,20.1Z"/>
      <path class="cls-4" d="M-25-96.82c-7.24,6.12-15.01,12.21-23.33,18.42C14.8-41.08,68.09-3.08,104.32,36.09c37.05,39.12,58.72,79.29,79.54,119.53-13.5-43.25-27.81-86.59-57.52-131.57C97.43-20.84,51.5-67.55-4.9-115.38c-6.17,6.31-12.87,12.45-20.1,18.56Z"/>
    </g>
    <g>
      <path class="cls-1" d="M495.78,291.09c5.84-9.94,11.84-20.15,17.92-30.66-90.37,1.74-156.45-9.7-207.16-29.48-50.92-19.66-86.91-47.43-122.68-75.32,30.3,33.72,61.12,67.26,107.31,95.67,45.68,28.58,107.78,51.69,187.64,68.88,5.45-9.46,11.13-19.14,16.96-29.08Z"/>
      <path class="cls-1" d="M319.33-156.29c-9.94-5.84-20.15-11.84-30.66-17.92,1.74,90.37-9.7,156.45-29.48,207.16-19.66,50.92-47.43,86.91-75.32,122.68,33.72-30.3,67.26-61.12,95.67-107.31,28.58-45.68,51.69-107.78,68.88-187.64-9.46-5.45-19.14-11.13-29.08-16.96Z"/>
      <path class="cls-1" d="M48.4,467.53c9.94,5.84,20.15,11.84,30.66,17.92-1.74-90.37,9.7-156.45,29.48-207.16,19.66-50.92,47.43-86.91,75.32-122.68-33.72,30.3-67.26,61.12-95.67,107.31-28.58,45.68-51.69,107.78-68.88,187.64,9.46,5.45,19.14,11.13,29.08,16.96Z"/>
      <path class="cls-1" d="M-128.04,20.15c-5.84,9.94-11.84,20.15-17.92,30.66,90.37-1.74,156.45,9.7,207.16,29.49,50.92,19.66,86.91,47.43,122.68,75.32-30.3-33.72-61.12-67.26-107.31-95.67C30.87,31.36-31.22,8.25-111.08-8.93c-5.45,9.46-11.13,19.14-16.96,29.08Z"/>
    </g>
  </g>
</svg>