<svg width="1336" height="849" viewBox="0 0 1336 849" fill="none" xmlns="http://www.w3.org/2000/svg">
<g opacity="0.6" clip-path="url(#clip0_58_1132)">
<g clip-path="url(#clip1_58_1132)">
<path d="M447 0H0V283H447V0Z" fill="#FEE8D4"/>
<path d="M48.2794 77.3263C69.6196 77.3263 86.9192 60.0162 86.9192 38.6631C86.9192 17.3101 69.6196 0 48.2794 0C26.9393 0 9.63965 17.3101 9.63965 38.6631C9.63965 60.0162 26.9393 77.3263 48.2794 77.3263Z" fill="#F15A29"/>
<path d="M387.657 77.3263C408.998 77.3263 426.297 60.0162 426.297 38.6631C426.297 17.3101 408.998 0 387.657 0C366.317 0 349.018 17.3101 349.018 38.6631C349.018 60.0162 366.317 77.3263 387.657 77.3263Z" fill="#FBB040"/>
<path d="M220.036 172.573C241.376 172.573 258.676 155.263 258.676 133.91C258.676 112.557 241.376 95.2466 220.036 95.2466C198.696 95.2466 181.396 112.557 181.396 133.91C181.396 155.263 198.696 172.573 220.036 172.573Z" fill="#F37D85"/>
<path d="M102.09 172.573C123.43 172.573 140.73 155.263 140.73 133.91C140.73 112.557 123.43 95.2466 102.09 95.2466C80.7498 95.2466 63.4502 112.557 63.4502 133.91C63.4502 155.263 80.7498 172.573 102.09 172.573Z" fill="#FFE173"/>
<path d="M271.793 77.3263C293.133 77.3263 310.433 60.0162 310.433 38.6631C310.433 17.3101 293.133 0 271.793 0C250.453 0 233.153 17.3101 233.153 38.6631C233.153 60.0162 250.453 77.3263 271.793 77.3263Z" fill="#603913"/>
<path d="M160.036 77.3263C181.376 77.3263 198.676 60.0162 198.676 38.6631C198.676 17.3101 181.376 0 160.036 0C138.696 0 121.396 17.3101 121.396 38.6631C121.396 60.0162 138.696 77.3263 160.036 77.3263Z" fill="#EF4136"/>
<path d="M38.6398 260.915C59.9799 260.915 77.2795 243.605 77.2795 222.252C77.2795 200.898 59.9799 183.588 38.6398 183.588C17.2996 183.588 0 200.898 0 222.252C0 243.605 17.2996 260.915 38.6398 260.915Z" fill="#F37D85"/>
<path d="M338.009 172.573C359.349 172.573 376.649 155.263 376.649 133.91C376.649 112.557 359.349 95.2466 338.009 95.2466C316.669 95.2466 299.369 112.557 299.369 133.91C299.369 155.263 316.669 172.573 338.009 172.573Z" fill="#F15A29"/>
<path d="M160.036 267.82C181.376 267.82 198.676 250.51 198.676 229.157C198.676 207.803 181.376 190.493 160.036 190.493C138.696 190.493 121.396 207.803 121.396 229.157C121.396 250.51 138.696 267.82 160.036 267.82Z" fill="#603913"/>
<path d="M397.324 267.82C418.665 267.82 435.964 250.51 435.964 229.157C435.964 207.803 418.665 190.493 397.324 190.493C375.984 190.493 358.685 207.803 358.685 229.157C358.685 250.51 375.984 267.82 397.324 267.82Z" fill="#E4AD74"/>
<path d="M281.432 267.82C302.772 267.82 320.072 250.51 320.072 229.157C320.072 207.803 302.772 190.493 281.432 190.493C260.092 190.493 242.792 207.803 242.792 229.157C242.792 250.51 260.092 267.82 281.432 267.82Z" fill="#FBB040"/>
</g>
<g clip-path="url(#clip2_58_1132)">
<path d="M447 283H0V566H447V283Z" fill="#FEE8D4"/>
<path d="M48.2794 360.326C69.6196 360.326 86.9192 343.016 86.9192 321.663C86.9192 300.31 69.6196 283 48.2794 283C26.9393 283 9.63965 300.31 9.63965 321.663C9.63965 343.016 26.9393 360.326 48.2794 360.326Z" fill="#F15A29"/>
<path d="M387.657 360.326C408.998 360.326 426.297 343.016 426.297 321.663C426.297 300.31 408.998 283 387.657 283C366.317 283 349.018 300.31 349.018 321.663C349.018 343.016 366.317 360.326 387.657 360.326Z" fill="#FBB040"/>
<path d="M220.036 455.573C241.376 455.573 258.676 438.263 258.676 416.91C258.676 395.557 241.376 378.247 220.036 378.247C198.696 378.247 181.396 395.557 181.396 416.91C181.396 438.263 198.696 455.573 220.036 455.573Z" fill="#F37D85"/>
<path d="M102.09 455.573C123.43 455.573 140.73 438.263 140.73 416.91C140.73 395.557 123.43 378.247 102.09 378.247C80.7498 378.247 63.4502 395.557 63.4502 416.91C63.4502 438.263 80.7498 455.573 102.09 455.573Z" fill="#FFE173"/>
<path d="M271.793 360.326C293.133 360.326 310.433 343.016 310.433 321.663C310.433 300.31 293.133 283 271.793 283C250.453 283 233.153 300.31 233.153 321.663C233.153 343.016 250.453 360.326 271.793 360.326Z" fill="#603913"/>
<path d="M160.036 360.326C181.376 360.326 198.676 343.016 198.676 321.663C198.676 300.31 181.376 283 160.036 283C138.696 283 121.396 300.31 121.396 321.663C121.396 343.016 138.696 360.326 160.036 360.326Z" fill="#EF4136"/>
<path d="M38.6398 543.915C59.9799 543.915 77.2795 526.605 77.2795 505.252C77.2795 483.898 59.9799 466.588 38.6398 466.588C17.2996 466.588 0 483.898 0 505.252C0 526.605 17.2996 543.915 38.6398 543.915Z" fill="#F37D85"/>
<path d="M338.009 455.573C359.349 455.573 376.649 438.263 376.649 416.91C376.649 395.557 359.349 378.247 338.009 378.247C316.669 378.247 299.369 395.557 299.369 416.91C299.369 438.263 316.669 455.573 338.009 455.573Z" fill="#F15A29"/>
<path d="M160.036 550.82C181.376 550.82 198.676 533.51 198.676 512.157C198.676 490.803 181.376 473.493 160.036 473.493C138.696 473.493 121.396 490.803 121.396 512.157C121.396 533.51 138.696 550.82 160.036 550.82Z" fill="#603913"/>
<path d="M397.324 550.82C418.665 550.82 435.964 533.51 435.964 512.157C435.964 490.803 418.665 473.493 397.324 473.493C375.984 473.493 358.685 490.803 358.685 512.157C358.685 533.51 375.984 550.82 397.324 550.82Z" fill="#E4AD74"/>
<path d="M281.432 550.82C302.772 550.82 320.072 533.51 320.072 512.157C320.072 490.803 302.772 473.493 281.432 473.493C260.092 473.493 242.792 490.803 242.792 512.157C242.792 533.51 260.092 550.82 281.432 550.82Z" fill="#FBB040"/>
</g>
<g clip-path="url(#clip3_58_1132)">
<path d="M447 566H0V849H447V566Z" fill="#FEE8D4"/>
<path d="M48.2794 643.326C69.6196 643.326 86.9192 626.016 86.9192 604.663C86.9192 583.31 69.6196 566 48.2794 566C26.9393 566 9.63965 583.31 9.63965 604.663C9.63965 626.016 26.9393 643.326 48.2794 643.326Z" fill="#F15A29"/>
<path d="M387.657 643.326C408.998 643.326 426.297 626.016 426.297 604.663C426.297 583.31 408.998 566 387.657 566C366.317 566 349.018 583.31 349.018 604.663C349.018 626.016 366.317 643.326 387.657 643.326Z" fill="#FBB040"/>
<path d="M220.036 738.573C241.376 738.573 258.676 721.263 258.676 699.91C258.676 678.557 241.376 661.247 220.036 661.247C198.696 661.247 181.396 678.557 181.396 699.91C181.396 721.263 198.696 738.573 220.036 738.573Z" fill="#F37D85"/>
<path d="M102.09 738.573C123.43 738.573 140.73 721.263 140.73 699.91C140.73 678.557 123.43 661.247 102.09 661.247C80.7498 661.247 63.4502 678.557 63.4502 699.91C63.4502 721.263 80.7498 738.573 102.09 738.573Z" fill="#FFE173"/>
<path d="M271.793 643.326C293.133 643.326 310.433 626.016 310.433 604.663C310.433 583.31 293.133 566 271.793 566C250.453 566 233.153 583.31 233.153 604.663C233.153 626.016 250.453 643.326 271.793 643.326Z" fill="#603913"/>
<path d="M160.036 643.326C181.376 643.326 198.676 626.016 198.676 604.663C198.676 583.31 181.376 566 160.036 566C138.696 566 121.396 583.31 121.396 604.663C121.396 626.016 138.696 643.326 160.036 643.326Z" fill="#EF4136"/>
<path d="M38.6398 826.915C59.9799 826.915 77.2795 809.605 77.2795 788.252C77.2795 766.898 59.9799 749.588 38.6398 749.588C17.2996 749.588 0 766.898 0 788.252C0 809.605 17.2996 826.915 38.6398 826.915Z" fill="#F37D85"/>
<path d="M338.009 738.573C359.349 738.573 376.649 721.263 376.649 699.91C376.649 678.557 359.349 661.247 338.009 661.247C316.669 661.247 299.369 678.557 299.369 699.91C299.369 721.263 316.669 738.573 338.009 738.573Z" fill="#F15A29"/>
<path d="M160.036 833.82C181.376 833.82 198.676 816.51 198.676 795.157C198.676 773.803 181.376 756.493 160.036 756.493C138.696 756.493 121.396 773.803 121.396 795.157C121.396 816.51 138.696 833.82 160.036 833.82Z" fill="#603913"/>
<path d="M397.324 833.82C418.665 833.82 435.964 816.51 435.964 795.157C435.964 773.803 418.665 756.493 397.324 756.493C375.984 756.493 358.685 773.803 358.685 795.157C358.685 816.51 375.984 833.82 397.324 833.82Z" fill="#E4AD74"/>
<path d="M281.432 833.82C302.772 833.82 320.072 816.51 320.072 795.157C320.072 773.803 302.772 756.493 281.432 756.493C260.092 756.493 242.792 773.803 242.792 795.157C242.792 816.51 260.092 833.82 281.432 833.82Z" fill="#FBB040"/>
</g>
<g clip-path="url(#clip4_58_1132)">
<path d="M894 566H447V849H894V566Z" fill="#FEE8D4"/>
<path d="M495.279 643.326C516.62 643.326 533.919 626.016 533.919 604.663C533.919 583.31 516.62 566 495.279 566C473.939 566 456.64 583.31 456.64 604.663C456.64 626.016 473.939 643.326 495.279 643.326Z" fill="#F15A29"/>
<path d="M834.657 643.326C855.998 643.326 873.297 626.016 873.297 604.663C873.297 583.31 855.998 566 834.657 566C813.317 566 796.018 583.31 796.018 604.663C796.018 626.016 813.317 643.326 834.657 643.326Z" fill="#FBB040"/>
<path d="M667.036 738.573C688.376 738.573 705.676 721.263 705.676 699.91C705.676 678.557 688.376 661.247 667.036 661.247C645.696 661.247 628.396 678.557 628.396 699.91C628.396 721.263 645.696 738.573 667.036 738.573Z" fill="#F37D85"/>
<path d="M549.09 738.573C570.43 738.573 587.73 721.263 587.73 699.91C587.73 678.557 570.43 661.247 549.09 661.247C527.75 661.247 510.45 678.557 510.45 699.91C510.45 721.263 527.75 738.573 549.09 738.573Z" fill="#FFE173"/>
<path d="M718.793 643.326C740.133 643.326 757.433 626.016 757.433 604.663C757.433 583.31 740.133 566 718.793 566C697.453 566 680.153 583.31 680.153 604.663C680.153 626.016 697.453 643.326 718.793 643.326Z" fill="#603913"/>
<path d="M607.036 643.326C628.376 643.326 645.676 626.016 645.676 604.663C645.676 583.31 628.376 566 607.036 566C585.696 566 568.396 583.31 568.396 604.663C568.396 626.016 585.696 643.326 607.036 643.326Z" fill="#EF4136"/>
<path d="M485.64 826.915C506.98 826.915 524.28 809.605 524.28 788.252C524.28 766.898 506.98 749.588 485.64 749.588C464.3 749.588 447 766.898 447 788.252C447 809.605 464.3 826.915 485.64 826.915Z" fill="#F37D85"/>
<path d="M785.009 738.573C806.349 738.573 823.649 721.263 823.649 699.91C823.649 678.557 806.349 661.247 785.009 661.247C763.669 661.247 746.369 678.557 746.369 699.91C746.369 721.263 763.669 738.573 785.009 738.573Z" fill="#F15A29"/>
<path d="M607.036 833.82C628.376 833.82 645.676 816.51 645.676 795.157C645.676 773.803 628.376 756.493 607.036 756.493C585.696 756.493 568.396 773.803 568.396 795.157C568.396 816.51 585.696 833.82 607.036 833.82Z" fill="#603913"/>
<path d="M844.324 833.82C865.665 833.82 882.964 816.51 882.964 795.157C882.964 773.803 865.665 756.493 844.324 756.493C822.984 756.493 805.685 773.803 805.685 795.157C805.685 816.51 822.984 833.82 844.324 833.82Z" fill="#E4AD74"/>
<path d="M728.432 833.82C749.772 833.82 767.072 816.51 767.072 795.157C767.072 773.803 749.772 756.493 728.432 756.493C707.092 756.493 689.792 773.803 689.792 795.157C689.792 816.51 707.092 833.82 728.432 833.82Z" fill="#FBB040"/>
</g>
<g clip-path="url(#clip5_58_1132)">
<path d="M1341 566H894V849H1341V566Z" fill="#FEE8D4"/>
<path d="M942.279 643.326C963.62 643.326 980.919 626.016 980.919 604.663C980.919 583.31 963.62 566 942.279 566C920.939 566 903.64 583.31 903.64 604.663C903.64 626.016 920.939 643.326 942.279 643.326Z" fill="#F15A29"/>
<path d="M1281.66 643.326C1303 643.326 1320.3 626.016 1320.3 604.663C1320.3 583.31 1303 566 1281.66 566C1260.32 566 1243.02 583.31 1243.02 604.663C1243.02 626.016 1260.32 643.326 1281.66 643.326Z" fill="#FBB040"/>
<path d="M1114.04 738.573C1135.38 738.573 1152.68 721.263 1152.68 699.91C1152.68 678.557 1135.38 661.247 1114.04 661.247C1092.7 661.247 1075.4 678.557 1075.4 699.91C1075.4 721.263 1092.7 738.573 1114.04 738.573Z" fill="#F37D85"/>
<path d="M996.09 738.573C1017.43 738.573 1034.73 721.263 1034.73 699.91C1034.73 678.557 1017.43 661.247 996.09 661.247C974.75 661.247 957.45 678.557 957.45 699.91C957.45 721.263 974.75 738.573 996.09 738.573Z" fill="#FFE173"/>
<path d="M1165.79 643.326C1187.13 643.326 1204.43 626.016 1204.43 604.663C1204.43 583.31 1187.13 566 1165.79 566C1144.45 566 1127.15 583.31 1127.15 604.663C1127.15 626.016 1144.45 643.326 1165.79 643.326Z" fill="#603913"/>
<path d="M1054.04 643.326C1075.38 643.326 1092.68 626.016 1092.68 604.663C1092.68 583.31 1075.38 566 1054.04 566C1032.7 566 1015.4 583.31 1015.4 604.663C1015.4 626.016 1032.7 643.326 1054.04 643.326Z" fill="#EF4136"/>
<path d="M932.64 826.915C953.98 826.915 971.28 809.605 971.28 788.252C971.28 766.898 953.98 749.588 932.64 749.588C911.3 749.588 894 766.898 894 788.252C894 809.605 911.3 826.915 932.64 826.915Z" fill="#F37D85"/>
<path d="M1232.01 738.573C1253.35 738.573 1270.65 721.263 1270.65 699.91C1270.65 678.557 1253.35 661.247 1232.01 661.247C1210.67 661.247 1193.37 678.557 1193.37 699.91C1193.37 721.263 1210.67 738.573 1232.01 738.573Z" fill="#F15A29"/>
<path d="M1054.04 833.82C1075.38 833.82 1092.68 816.51 1092.68 795.157C1092.68 773.803 1075.38 756.493 1054.04 756.493C1032.7 756.493 1015.4 773.803 1015.4 795.157C1015.4 816.51 1032.7 833.82 1054.04 833.82Z" fill="#603913"/>
<path d="M1291.32 833.82C1312.66 833.82 1329.96 816.51 1329.96 795.157C1329.96 773.803 1312.66 756.493 1291.32 756.493C1269.98 756.493 1252.68 773.803 1252.68 795.157C1252.68 816.51 1269.98 833.82 1291.32 833.82Z" fill="#E4AD74"/>
<path d="M1175.43 833.82C1196.77 833.82 1214.07 816.51 1214.07 795.157C1214.07 773.803 1196.77 756.493 1175.43 756.493C1154.09 756.493 1136.79 773.803 1136.79 795.157C1136.79 816.51 1154.09 833.82 1175.43 833.82Z" fill="#FBB040"/>
</g>
<g clip-path="url(#clip6_58_1132)">
<path d="M1338 283H891V566H1338V283Z" fill="#FEE8D4"/>
<path d="M939.279 360.326C960.62 360.326 977.919 343.016 977.919 321.663C977.919 300.31 960.62 283 939.279 283C917.939 283 900.64 300.31 900.64 321.663C900.64 343.016 917.939 360.326 939.279 360.326Z" fill="#F15A29"/>
<path d="M1278.66 360.326C1300 360.326 1317.3 343.016 1317.3 321.663C1317.3 300.31 1300 283 1278.66 283C1257.32 283 1240.02 300.31 1240.02 321.663C1240.02 343.016 1257.32 360.326 1278.66 360.326Z" fill="#FBB040"/>
<path d="M1111.04 455.573C1132.38 455.573 1149.68 438.263 1149.68 416.91C1149.68 395.557 1132.38 378.247 1111.04 378.247C1089.7 378.247 1072.4 395.557 1072.4 416.91C1072.4 438.263 1089.7 455.573 1111.04 455.573Z" fill="#F37D85"/>
<path d="M993.09 455.573C1014.43 455.573 1031.73 438.263 1031.73 416.91C1031.73 395.557 1014.43 378.247 993.09 378.247C971.75 378.247 954.45 395.557 954.45 416.91C954.45 438.263 971.75 455.573 993.09 455.573Z" fill="#FFE173"/>
<path d="M1162.79 360.326C1184.13 360.326 1201.43 343.016 1201.43 321.663C1201.43 300.31 1184.13 283 1162.79 283C1141.45 283 1124.15 300.31 1124.15 321.663C1124.15 343.016 1141.45 360.326 1162.79 360.326Z" fill="#603913"/>
<path d="M1051.04 360.326C1072.38 360.326 1089.68 343.016 1089.68 321.663C1089.68 300.31 1072.38 283 1051.04 283C1029.7 283 1012.4 300.31 1012.4 321.663C1012.4 343.016 1029.7 360.326 1051.04 360.326Z" fill="#EF4136"/>
<path d="M929.64 543.915C950.98 543.915 968.28 526.605 968.28 505.252C968.28 483.898 950.98 466.588 929.64 466.588C908.3 466.588 891 483.898 891 505.252C891 526.605 908.3 543.915 929.64 543.915Z" fill="#F37D85"/>
<path d="M1229.01 455.573C1250.35 455.573 1267.65 438.263 1267.65 416.91C1267.65 395.557 1250.35 378.247 1229.01 378.247C1207.67 378.247 1190.37 395.557 1190.37 416.91C1190.37 438.263 1207.67 455.573 1229.01 455.573Z" fill="#F15A29"/>
<path d="M1051.04 550.82C1072.38 550.82 1089.68 533.51 1089.68 512.157C1089.68 490.803 1072.38 473.493 1051.04 473.493C1029.7 473.493 1012.4 490.803 1012.4 512.157C1012.4 533.51 1029.7 550.82 1051.04 550.82Z" fill="#603913"/>
<path d="M1288.32 550.82C1309.66 550.82 1326.96 533.51 1326.96 512.157C1326.96 490.803 1309.66 473.493 1288.32 473.493C1266.98 473.493 1249.68 490.803 1249.68 512.157C1249.68 533.51 1266.98 550.82 1288.32 550.82Z" fill="#E4AD74"/>
<path d="M1172.43 550.82C1193.77 550.82 1211.07 533.51 1211.07 512.157C1211.07 490.803 1193.77 473.493 1172.43 473.493C1151.09 473.493 1133.79 490.803 1133.79 512.157C1133.79 533.51 1151.09 550.82 1172.43 550.82Z" fill="#FBB040"/>
</g>
<g clip-path="url(#clip7_58_1132)">
<path d="M891 283H444V566H891V283Z" fill="#FEE8D4"/>
<path d="M492.279 360.326C513.62 360.326 530.919 343.016 530.919 321.663C530.919 300.31 513.62 283 492.279 283C470.939 283 453.64 300.31 453.64 321.663C453.64 343.016 470.939 360.326 492.279 360.326Z" fill="#F15A29"/>
<path d="M831.657 360.326C852.998 360.326 870.297 343.016 870.297 321.663C870.297 300.31 852.998 283 831.657 283C810.317 283 793.018 300.31 793.018 321.663C793.018 343.016 810.317 360.326 831.657 360.326Z" fill="#FBB040"/>
<path d="M664.036 455.573C685.376 455.573 702.676 438.263 702.676 416.91C702.676 395.557 685.376 378.247 664.036 378.247C642.696 378.247 625.396 395.557 625.396 416.91C625.396 438.263 642.696 455.573 664.036 455.573Z" fill="#F37D85"/>
<path d="M546.09 455.573C567.43 455.573 584.73 438.263 584.73 416.91C584.73 395.557 567.43 378.247 546.09 378.247C524.75 378.247 507.45 395.557 507.45 416.91C507.45 438.263 524.75 455.573 546.09 455.573Z" fill="#FFE173"/>
<path d="M715.793 360.326C737.133 360.326 754.433 343.016 754.433 321.663C754.433 300.31 737.133 283 715.793 283C694.453 283 677.153 300.31 677.153 321.663C677.153 343.016 694.453 360.326 715.793 360.326Z" fill="#603913"/>
<path d="M604.036 360.326C625.376 360.326 642.676 343.016 642.676 321.663C642.676 300.31 625.376 283 604.036 283C582.696 283 565.396 300.31 565.396 321.663C565.396 343.016 582.696 360.326 604.036 360.326Z" fill="#EF4136"/>
<path d="M482.64 543.915C503.98 543.915 521.28 526.605 521.28 505.252C521.28 483.898 503.98 466.588 482.64 466.588C461.3 466.588 444 483.898 444 505.252C444 526.605 461.3 543.915 482.64 543.915Z" fill="#F37D85"/>
<path d="M782.009 455.573C803.349 455.573 820.649 438.263 820.649 416.91C820.649 395.557 803.349 378.247 782.009 378.247C760.669 378.247 743.369 395.557 743.369 416.91C743.369 438.263 760.669 455.573 782.009 455.573Z" fill="#F15A29"/>
<path d="M604.036 550.82C625.376 550.82 642.676 533.51 642.676 512.157C642.676 490.803 625.376 473.493 604.036 473.493C582.696 473.493 565.396 490.803 565.396 512.157C565.396 533.51 582.696 550.82 604.036 550.82Z" fill="#603913"/>
<path d="M841.324 550.82C862.665 550.82 879.964 533.51 879.964 512.157C879.964 490.803 862.665 473.493 841.324 473.493C819.984 473.493 802.685 490.803 802.685 512.157C802.685 533.51 819.984 550.82 841.324 550.82Z" fill="#E4AD74"/>
<path d="M725.432 550.82C746.772 550.82 764.072 533.51 764.072 512.157C764.072 490.803 746.772 473.493 725.432 473.493C704.092 473.493 686.792 490.803 686.792 512.157C686.792 533.51 704.092 550.82 725.432 550.82Z" fill="#FBB040"/>
</g>
<g clip-path="url(#clip8_58_1132)">
<path d="M894 0H447V283H894V0Z" fill="#FEE8D4"/>
<path d="M495.279 77.3263C516.62 77.3263 533.919 60.0162 533.919 38.6631C533.919 17.3101 516.62 0 495.279 0C473.939 0 456.64 17.3101 456.64 38.6631C456.64 60.0162 473.939 77.3263 495.279 77.3263Z" fill="#F15A29"/>
<path d="M834.657 77.3263C855.998 77.3263 873.297 60.0162 873.297 38.6631C873.297 17.3101 855.998 0 834.657 0C813.317 0 796.018 17.3101 796.018 38.6631C796.018 60.0162 813.317 77.3263 834.657 77.3263Z" fill="#FBB040"/>
<path d="M667.036 172.573C688.376 172.573 705.676 155.263 705.676 133.91C705.676 112.557 688.376 95.2466 667.036 95.2466C645.696 95.2466 628.396 112.557 628.396 133.91C628.396 155.263 645.696 172.573 667.036 172.573Z" fill="#F37D85"/>
<path d="M549.09 172.573C570.43 172.573 587.73 155.263 587.73 133.91C587.73 112.557 570.43 95.2466 549.09 95.2466C527.75 95.2466 510.45 112.557 510.45 133.91C510.45 155.263 527.75 172.573 549.09 172.573Z" fill="#FFE173"/>
<path d="M718.793 77.3263C740.133 77.3263 757.433 60.0162 757.433 38.6631C757.433 17.3101 740.133 0 718.793 0C697.453 0 680.153 17.3101 680.153 38.6631C680.153 60.0162 697.453 77.3263 718.793 77.3263Z" fill="#603913"/>
<path d="M607.036 77.3263C628.376 77.3263 645.676 60.0162 645.676 38.6631C645.676 17.3101 628.376 0 607.036 0C585.696 0 568.396 17.3101 568.396 38.6631C568.396 60.0162 585.696 77.3263 607.036 77.3263Z" fill="#EF4136"/>
<path d="M485.64 260.915C506.98 260.915 524.28 243.605 524.28 222.252C524.28 200.898 506.98 183.588 485.64 183.588C464.3 183.588 447 200.898 447 222.252C447 243.605 464.3 260.915 485.64 260.915Z" fill="#F37D85"/>
<path d="M785.009 172.573C806.349 172.573 823.649 155.263 823.649 133.91C823.649 112.557 806.349 95.2466 785.009 95.2466C763.669 95.2466 746.369 112.557 746.369 133.91C746.369 155.263 763.669 172.573 785.009 172.573Z" fill="#F15A29"/>
<path d="M607.036 267.82C628.376 267.82 645.676 250.51 645.676 229.157C645.676 207.803 628.376 190.493 607.036 190.493C585.696 190.493 568.396 207.803 568.396 229.157C568.396 250.51 585.696 267.82 607.036 267.82Z" fill="#603913"/>
<path d="M844.324 267.82C865.665 267.82 882.964 250.51 882.964 229.157C882.964 207.803 865.665 190.493 844.324 190.493C822.984 190.493 805.685 207.803 805.685 229.157C805.685 250.51 822.984 267.82 844.324 267.82Z" fill="#E4AD74"/>
<path d="M728.432 267.82C749.772 267.82 767.072 250.51 767.072 229.157C767.072 207.803 749.772 190.493 728.432 190.493C707.092 190.493 689.792 207.803 689.792 229.157C689.792 250.51 707.092 267.82 728.432 267.82Z" fill="#FBB040"/>
</g>
<g clip-path="url(#clip9_58_1132)">
<path d="M1341 0H894V283H1341V0Z" fill="#FEE8D4"/>
<path d="M942.279 77.3263C963.62 77.3263 980.919 60.0162 980.919 38.6631C980.919 17.3101 963.62 0 942.279 0C920.939 0 903.64 17.3101 903.64 38.6631C903.64 60.0162 920.939 77.3263 942.279 77.3263Z" fill="#F15A29"/>
<path d="M1281.66 77.3263C1303 77.3263 1320.3 60.0162 1320.3 38.6631C1320.3 17.3101 1303 0 1281.66 0C1260.32 0 1243.02 17.3101 1243.02 38.6631C1243.02 60.0162 1260.32 77.3263 1281.66 77.3263Z" fill="#FBB040"/>
<path d="M1114.04 172.573C1135.38 172.573 1152.68 155.263 1152.68 133.91C1152.68 112.557 1135.38 95.2466 1114.04 95.2466C1092.7 95.2466 1075.4 112.557 1075.4 133.91C1075.4 155.263 1092.7 172.573 1114.04 172.573Z" fill="#F37D85"/>
<path d="M996.09 172.573C1017.43 172.573 1034.73 155.263 1034.73 133.91C1034.73 112.557 1017.43 95.2466 996.09 95.2466C974.75 95.2466 957.45 112.557 957.45 133.91C957.45 155.263 974.75 172.573 996.09 172.573Z" fill="#FFE173"/>
<path d="M1165.79 77.3263C1187.13 77.3263 1204.43 60.0162 1204.43 38.6631C1204.43 17.3101 1187.13 0 1165.79 0C1144.45 0 1127.15 17.3101 1127.15 38.6631C1127.15 60.0162 1144.45 77.3263 1165.79 77.3263Z" fill="#603913"/>
<path d="M1054.04 77.3263C1075.38 77.3263 1092.68 60.0162 1092.68 38.6631C1092.68 17.3101 1075.38 0 1054.04 0C1032.7 0 1015.4 17.3101 1015.4 38.6631C1015.4 60.0162 1032.7 77.3263 1054.04 77.3263Z" fill="#EF4136"/>
<path d="M932.64 260.915C953.98 260.915 971.28 243.605 971.28 222.252C971.28 200.898 953.98 183.588 932.64 183.588C911.3 183.588 894 200.898 894 222.252C894 243.605 911.3 260.915 932.64 260.915Z" fill="#F37D85"/>
<path d="M1232.01 172.573C1253.35 172.573 1270.65 155.263 1270.65 133.91C1270.65 112.557 1253.35 95.2466 1232.01 95.2466C1210.67 95.2466 1193.37 112.557 1193.37 133.91C1193.37 155.263 1210.67 172.573 1232.01 172.573Z" fill="#F15A29"/>
<path d="M1054.04 267.82C1075.38 267.82 1092.68 250.51 1092.68 229.157C1092.68 207.803 1075.38 190.493 1054.04 190.493C1032.7 190.493 1015.4 207.803 1015.4 229.157C1015.4 250.51 1032.7 267.82 1054.04 267.82Z" fill="#603913"/>
<path d="M1291.32 267.82C1312.66 267.82 1329.96 250.51 1329.96 229.157C1329.96 207.803 1312.66 190.493 1291.32 190.493C1269.98 190.493 1252.68 207.803 1252.68 229.157C1252.68 250.51 1269.98 267.82 1291.32 267.82Z" fill="#E4AD74"/>
<path d="M1175.43 267.82C1196.77 267.82 1214.07 250.51 1214.07 229.157C1214.07 207.803 1196.77 190.493 1175.43 190.493C1154.09 190.493 1136.79 207.803 1136.79 229.157C1136.79 250.51 1154.09 267.82 1175.43 267.82Z" fill="#FBB040"/>
</g>
</g>
<defs>
<clipPath id="clip0_58_1132">
<rect width="1336" height="849" fill="white"/>
</clipPath>
<clipPath id="clip1_58_1132">
<rect width="447" height="283" fill="white"/>
</clipPath>
<clipPath id="clip2_58_1132">
<rect width="447" height="283" fill="white" transform="translate(0 283)"/>
</clipPath>
<clipPath id="clip3_58_1132">
<rect width="447" height="283" fill="white" transform="translate(0 566)"/>
</clipPath>
<clipPath id="clip4_58_1132">
<rect width="447" height="283" fill="white" transform="translate(447 566)"/>
</clipPath>
<clipPath id="clip5_58_1132">
<rect width="447" height="283" fill="white" transform="translate(894 566)"/>
</clipPath>
<clipPath id="clip6_58_1132">
<rect width="447" height="283" fill="white" transform="translate(891 283)"/>
</clipPath>
<clipPath id="clip7_58_1132">
<rect width="447" height="283" fill="white" transform="translate(444 283)"/>
</clipPath>
<clipPath id="clip8_58_1132">
<rect width="447" height="283" fill="white" transform="translate(447)"/>
</clipPath>
<clipPath id="clip9_58_1132">
<rect width="447" height="283" fill="white" transform="translate(894)"/>
</clipPath>
</defs>
</svg>
