<svg width="1440" height="283" viewBox="0 0 1440 283" fill="none" xmlns="http://www.w3.org/2000/svg">
<g clip-path="url(#clip0_42_836)">
<g clip-path="url(#clip1_42_836)">
<path d="M447 0H0V283H447V0Z" fill="#FEE8D4"/>
<path d="M48.2792 77.3263C69.6193 77.3263 86.9189 60.0162 86.9189 38.6631C86.9189 17.3101 69.6193 0 48.2792 0C26.939 0 9.6394 17.3101 9.6394 38.6631C9.6394 60.0162 26.939 77.3263 48.2792 77.3263Z" fill="#F15A29"/>
<path d="M387.657 77.3263C408.998 77.3263 426.297 60.0162 426.297 38.6631C426.297 17.3101 408.998 0 387.657 0C366.317 0 349.018 17.3101 349.018 38.6631C349.018 60.0162 366.317 77.3263 387.657 77.3263Z" fill="#FBB040"/>
<path d="M220.036 172.573C241.376 172.573 258.676 155.263 258.676 133.91C258.676 112.557 241.376 95.2467 220.036 95.2467C198.696 95.2467 181.396 112.557 181.396 133.91C181.396 155.263 198.696 172.573 220.036 172.573Z" fill="#F37D85"/>
<path d="M102.09 172.573C123.43 172.573 140.73 155.263 140.73 133.91C140.73 112.557 123.43 95.2467 102.09 95.2467C80.7501 95.2467 63.4504 112.557 63.4504 133.91C63.4504 155.263 80.7501 172.573 102.09 172.573Z" fill="#FFE173"/>
<path d="M271.793 77.3263C293.133 77.3263 310.433 60.0162 310.433 38.6631C310.433 17.3101 293.133 0 271.793 0C250.453 0 233.153 17.3101 233.153 38.6631C233.153 60.0162 250.453 77.3263 271.793 77.3263Z" fill="#603913"/>
<path d="M160.036 77.3263C181.376 77.3263 198.676 60.0162 198.676 38.6631C198.676 17.3101 181.376 0 160.036 0C138.696 0 121.396 17.3101 121.396 38.6631C121.396 60.0162 138.696 77.3263 160.036 77.3263Z" fill="#EF4136"/>
<path d="M38.6398 260.915C59.9799 260.915 77.2795 243.604 77.2795 222.251C77.2795 200.898 59.9799 183.588 38.6398 183.588C17.2996 183.588 0 200.898 0 222.251C0 243.604 17.2996 260.915 38.6398 260.915Z" fill="#F37D85"/>
<path d="M338.009 172.573C359.349 172.573 376.649 155.263 376.649 133.91C376.649 112.557 359.349 95.2467 338.009 95.2467C316.669 95.2467 299.369 112.557 299.369 133.91C299.369 155.263 316.669 172.573 338.009 172.573Z" fill="#F15A29"/>
<path d="M160.036 267.82C181.376 267.82 198.676 250.51 198.676 229.157C198.676 207.803 181.376 190.493 160.036 190.493C138.696 190.493 121.396 207.803 121.396 229.157C121.396 250.51 138.696 267.82 160.036 267.82Z" fill="#603913"/>
<path d="M397.324 267.82C418.664 267.82 435.964 250.51 435.964 229.157C435.964 207.803 418.664 190.493 397.324 190.493C375.984 190.493 358.684 207.803 358.684 229.157C358.684 250.51 375.984 267.82 397.324 267.82Z" fill="#E4AD74"/>
<path d="M281.432 267.82C302.772 267.82 320.072 250.51 320.072 229.157C320.072 207.803 302.772 190.493 281.432 190.493C260.092 190.493 242.792 207.803 242.792 229.157C242.792 250.51 260.092 267.82 281.432 267.82Z" fill="#FBB040"/>
</g>
<g clip-path="url(#clip2_42_836)">
<path d="M894 0H447V283H894V0Z" fill="#FEE8D4"/>
<path d="M495.279 77.3263C516.619 77.3263 533.919 60.0162 533.919 38.6631C533.919 17.3101 516.619 0 495.279 0C473.939 0 456.639 17.3101 456.639 38.6631C456.639 60.0162 473.939 77.3263 495.279 77.3263Z" fill="#F15A29"/>
<path d="M834.657 77.3263C855.998 77.3263 873.297 60.0162 873.297 38.6631C873.297 17.3101 855.998 0 834.657 0C813.317 0 796.018 17.3101 796.018 38.6631C796.018 60.0162 813.317 77.3263 834.657 77.3263Z" fill="#FBB040"/>
<path d="M667.036 172.573C688.376 172.573 705.676 155.263 705.676 133.91C705.676 112.557 688.376 95.2467 667.036 95.2467C645.696 95.2467 628.396 112.557 628.396 133.91C628.396 155.263 645.696 172.573 667.036 172.573Z" fill="#F37D85"/>
<path d="M549.09 172.573C570.43 172.573 587.73 155.263 587.73 133.91C587.73 112.557 570.43 95.2467 549.09 95.2467C527.75 95.2467 510.45 112.557 510.45 133.91C510.45 155.263 527.75 172.573 549.09 172.573Z" fill="#FFE173"/>
<path d="M718.793 77.3263C740.133 77.3263 757.433 60.0162 757.433 38.6631C757.433 17.3101 740.133 0 718.793 0C697.453 0 680.153 17.3101 680.153 38.6631C680.153 60.0162 697.453 77.3263 718.793 77.3263Z" fill="#603913"/>
<path d="M607.036 77.3263C628.376 77.3263 645.676 60.0162 645.676 38.6631C645.676 17.3101 628.376 0 607.036 0C585.696 0 568.396 17.3101 568.396 38.6631C568.396 60.0162 585.696 77.3263 607.036 77.3263Z" fill="#EF4136"/>
<path d="M485.64 260.915C506.98 260.915 524.28 243.604 524.28 222.251C524.28 200.898 506.98 183.588 485.64 183.588C464.3 183.588 447 200.898 447 222.251C447 243.604 464.3 260.915 485.64 260.915Z" fill="#F37D85"/>
<path d="M785.009 172.573C806.349 172.573 823.649 155.263 823.649 133.91C823.649 112.557 806.349 95.2467 785.009 95.2467C763.669 95.2467 746.369 112.557 746.369 133.91C746.369 155.263 763.669 172.573 785.009 172.573Z" fill="#F15A29"/>
<path d="M607.036 267.82C628.376 267.82 645.676 250.51 645.676 229.157C645.676 207.803 628.376 190.493 607.036 190.493C585.696 190.493 568.396 207.803 568.396 229.157C568.396 250.51 585.696 267.82 607.036 267.82Z" fill="#603913"/>
<path d="M844.324 267.82C865.664 267.82 882.964 250.51 882.964 229.157C882.964 207.803 865.664 190.493 844.324 190.493C822.984 190.493 805.684 207.803 805.684 229.157C805.684 250.51 822.984 267.82 844.324 267.82Z" fill="#E4AD74"/>
<path d="M728.432 267.82C749.772 267.82 767.072 250.51 767.072 229.157C767.072 207.803 749.772 190.493 728.432 190.493C707.092 190.493 689.792 207.803 689.792 229.157C689.792 250.51 707.092 267.82 728.432 267.82Z" fill="#FBB040"/>
</g>
<g clip-path="url(#clip3_42_836)">
<path d="M1341 0H894V283H1341V0Z" fill="#FEE8D4"/>
<path d="M942.279 77.3263C963.619 77.3263 980.919 60.0162 980.919 38.6631C980.919 17.3101 963.619 0 942.279 0C920.939 0 903.639 17.3101 903.639 38.6631C903.639 60.0162 920.939 77.3263 942.279 77.3263Z" fill="#F15A29"/>
<path d="M1281.66 77.3263C1303 77.3263 1320.3 60.0162 1320.3 38.6631C1320.3 17.3101 1303 0 1281.66 0C1260.32 0 1243.02 17.3101 1243.02 38.6631C1243.02 60.0162 1260.32 77.3263 1281.66 77.3263Z" fill="#FBB040"/>
<path d="M1114.04 172.573C1135.38 172.573 1152.68 155.263 1152.68 133.91C1152.68 112.557 1135.38 95.2467 1114.04 95.2467C1092.7 95.2467 1075.4 112.557 1075.4 133.91C1075.4 155.263 1092.7 172.573 1114.04 172.573Z" fill="#F37D85"/>
<path d="M996.09 172.573C1017.43 172.573 1034.73 155.263 1034.73 133.91C1034.73 112.557 1017.43 95.2467 996.09 95.2467C974.75 95.2467 957.45 112.557 957.45 133.91C957.45 155.263 974.75 172.573 996.09 172.573Z" fill="#FFE173"/>
<path d="M1165.79 77.3263C1187.13 77.3263 1204.43 60.0162 1204.43 38.6631C1204.43 17.3101 1187.13 0 1165.79 0C1144.45 0 1127.15 17.3101 1127.15 38.6631C1127.15 60.0162 1144.45 77.3263 1165.79 77.3263Z" fill="#603913"/>
<path d="M1054.04 77.3263C1075.38 77.3263 1092.68 60.0162 1092.68 38.6631C1092.68 17.3101 1075.38 0 1054.04 0C1032.7 0 1015.4 17.3101 1015.4 38.6631C1015.4 60.0162 1032.7 77.3263 1054.04 77.3263Z" fill="#EF4136"/>
<path d="M932.64 260.915C953.98 260.915 971.28 243.604 971.28 222.251C971.28 200.898 953.98 183.588 932.64 183.588C911.3 183.588 894 200.898 894 222.251C894 243.604 911.3 260.915 932.64 260.915Z" fill="#F37D85"/>
<path d="M1232.01 172.573C1253.35 172.573 1270.65 155.263 1270.65 133.91C1270.65 112.557 1253.35 95.2467 1232.01 95.2467C1210.67 95.2467 1193.37 112.557 1193.37 133.91C1193.37 155.263 1210.67 172.573 1232.01 172.573Z" fill="#F15A29"/>
<path d="M1054.04 267.82C1075.38 267.82 1092.68 250.51 1092.68 229.157C1092.68 207.803 1075.38 190.493 1054.04 190.493C1032.7 190.493 1015.4 207.803 1015.4 229.157C1015.4 250.51 1032.7 267.82 1054.04 267.82Z" fill="#603913"/>
<path d="M1291.32 267.82C1312.66 267.82 1329.96 250.51 1329.96 229.157C1329.96 207.803 1312.66 190.493 1291.32 190.493C1269.98 190.493 1252.68 207.803 1252.68 229.157C1252.68 250.51 1269.98 267.82 1291.32 267.82Z" fill="#E4AD74"/>
<path d="M1175.43 267.82C1196.77 267.82 1214.07 250.51 1214.07 229.157C1214.07 207.803 1196.77 190.493 1175.43 190.493C1154.09 190.493 1136.79 207.803 1136.79 229.157C1136.79 250.51 1154.09 267.82 1175.43 267.82Z" fill="#FBB040"/>
</g>
<g clip-path="url(#clip4_42_836)">
<path d="M1788 0H1341V283H1788V0Z" fill="#FEE8D4"/>
<path d="M1389.28 77.3263C1410.62 77.3263 1427.92 60.0162 1427.92 38.6631C1427.92 17.3101 1410.62 0 1389.28 0C1367.94 0 1350.64 17.3101 1350.64 38.6631C1350.64 60.0162 1367.94 77.3263 1389.28 77.3263Z" fill="#F15A29"/>
<path d="M1443.09 172.573C1464.43 172.573 1481.73 155.263 1481.73 133.91C1481.73 112.557 1464.43 95.2467 1443.09 95.2467C1421.75 95.2467 1404.45 112.557 1404.45 133.91C1404.45 155.263 1421.75 172.573 1443.09 172.573Z" fill="#FFE173"/>
<path d="M1379.64 260.915C1400.98 260.915 1418.28 243.604 1418.28 222.251C1418.28 200.898 1400.98 183.588 1379.64 183.588C1358.3 183.588 1341 200.898 1341 222.251C1341 243.604 1358.3 260.915 1379.64 260.915Z" fill="#F37D85"/>
</g>
</g>
<defs>
<clipPath id="clip0_42_836">
<rect width="1440" height="283" fill="white"/>
</clipPath>
<clipPath id="clip1_42_836">
<rect width="447" height="283" fill="white"/>
</clipPath>
<clipPath id="clip2_42_836">
<rect width="447" height="283" fill="white" transform="translate(447)"/>
</clipPath>
<clipPath id="clip3_42_836">
<rect width="447" height="283" fill="white" transform="translate(894)"/>
</clipPath>
<clipPath id="clip4_42_836">
<rect width="447" height="283" fill="white" transform="translate(1341)"/>
</clipPath>
</defs>
</svg>
