<svg width="32" height="42" viewBox="0 0 32 42" fill="none" xmlns="http://www.w3.org/2000/svg">
<mask id="path-1-outside-1_23_685" maskUnits="userSpaceOnUse" x="-1" y="3" width="21" height="19" fill="black">
<rect fill="white" x="-1" y="3" width="21" height="19"/>
<path d="M0.185547 18.3496C0.185547 18.0501 0.227865 17.7441 0.3125 17.4316C0.397135 17.1126 0.511068 16.849 0.654297 16.6406L1.5918 16.8164L2.64648 7.67578L1.14258 7.46094C1.01888 7.13542 0.957031 6.80339 0.957031 6.46484C0.957031 6.11979 1.02539 5.76823 1.16211 5.41016C1.50716 5.2474 2.09635 5.11719 2.92969 5.01953C3.76953 4.91536 4.51497 4.86328 5.16602 4.86328C5.77148 4.86328 6.51693 4.8763 7.40234 4.90234L7.74414 5.05859C7.88737 5.46224 8.08268 6.1556 8.33008 7.13867C8.58398 8.11523 9.01367 9.84049 9.61914 12.3145C9.7168 12.6986 9.82422 13.1348 9.94141 13.623C10.2539 12.4902 10.638 10.8887 11.0938 8.81836L11.3379 7.75391H11.3867L9.76562 7.48047C9.60938 7.11589 9.53125 6.72526 9.53125 6.30859C9.53125 6.03516 9.56706 5.73893 9.63867 5.41992C10.2702 5.2181 10.9277 5.07487 11.6113 4.99023C12.3014 4.9056 13.0534 4.86328 13.8672 4.86328H14.1895C14.5345 4.86328 15.026 4.8763 15.6641 4.90234L16.0059 5.05859C16.4225 6.56901 16.8197 8.40169 17.1973 10.5566C17.5814 12.7051 17.8711 14.6777 18.0664 16.4746L18.0957 16.7188C18.1022 16.7643 18.1185 16.9206 18.1445 17.1875C18.1706 17.4479 18.1836 17.6986 18.1836 17.9395C18.1836 18.2324 18.1543 18.5221 18.0957 18.8086C17.998 19.2383 17.8223 19.5931 17.5684 19.873C17.3145 19.9772 17.0475 20.0553 16.7676 20.1074C16.4941 20.166 16.1751 20.1953 15.8105 20.1953C15.4525 20.1953 15.0944 20.153 14.7363 20.0684C14.3848 19.9902 14.1504 19.873 14.0332 19.7168L14.3848 17.4805L13.7988 11.3379L13.8477 8.06641H13.5449L13.0664 11.416C12.4284 13.7793 11.8457 15.6087 11.3184 16.9043C11.5007 17.2624 11.6569 17.6595 11.7871 18.0957C11.9238 18.5319 12.0085 18.9583 12.041 19.375C11.7676 19.6354 11.3932 19.8372 10.918 19.9805C10.4492 20.1237 9.95117 20.1953 9.42383 20.1953C8.88346 20.1953 8.38867 20.1204 7.93945 19.9707C7.49674 19.821 7.17448 19.6126 6.97266 19.3457C7.00521 18.6882 7.16797 18.0534 7.46094 17.4414L5.72266 11.1621L5 8.20312L4.66797 8.25195L5.14648 11.5625C5.12044 12.7148 5.07812 13.8867 5.01953 15.0781C4.96094 16.2695 4.89583 17.2135 4.82422 17.9102H4.83398C4.7819 18.3203 4.64193 18.6849 4.41406 19.0039C4.19271 19.3164 3.90951 19.5605 3.56445 19.7363C3.22591 19.9121 2.85807 20 2.46094 20C1.41927 20 0.667318 19.5508 0.205078 18.6523C0.192057 18.5221 0.185547 18.4212 0.185547 18.3496Z"/>
</mask>
<path d="M0.185547 18.3496C0.185547 18.0501 0.227865 17.7441 0.3125 17.4316C0.397135 17.1126 0.511068 16.849 0.654297 16.6406L1.5918 16.8164L2.64648 7.67578L1.14258 7.46094C1.01888 7.13542 0.957031 6.80339 0.957031 6.46484C0.957031 6.11979 1.02539 5.76823 1.16211 5.41016C1.50716 5.2474 2.09635 5.11719 2.92969 5.01953C3.76953 4.91536 4.51497 4.86328 5.16602 4.86328C5.77148 4.86328 6.51693 4.8763 7.40234 4.90234L7.74414 5.05859C7.88737 5.46224 8.08268 6.1556 8.33008 7.13867C8.58398 8.11523 9.01367 9.84049 9.61914 12.3145C9.7168 12.6986 9.82422 13.1348 9.94141 13.623C10.2539 12.4902 10.638 10.8887 11.0938 8.81836L11.3379 7.75391H11.3867L9.76562 7.48047C9.60938 7.11589 9.53125 6.72526 9.53125 6.30859C9.53125 6.03516 9.56706 5.73893 9.63867 5.41992C10.2702 5.2181 10.9277 5.07487 11.6113 4.99023C12.3014 4.9056 13.0534 4.86328 13.8672 4.86328H14.1895C14.5345 4.86328 15.026 4.8763 15.6641 4.90234L16.0059 5.05859C16.4225 6.56901 16.8197 8.40169 17.1973 10.5566C17.5814 12.7051 17.8711 14.6777 18.0664 16.4746L18.0957 16.7188C18.1022 16.7643 18.1185 16.9206 18.1445 17.1875C18.1706 17.4479 18.1836 17.6986 18.1836 17.9395C18.1836 18.2324 18.1543 18.5221 18.0957 18.8086C17.998 19.2383 17.8223 19.5931 17.5684 19.873C17.3145 19.9772 17.0475 20.0553 16.7676 20.1074C16.4941 20.166 16.1751 20.1953 15.8105 20.1953C15.4525 20.1953 15.0944 20.153 14.7363 20.0684C14.3848 19.9902 14.1504 19.873 14.0332 19.7168L14.3848 17.4805L13.7988 11.3379L13.8477 8.06641H13.5449L13.0664 11.416C12.4284 13.7793 11.8457 15.6087 11.3184 16.9043C11.5007 17.2624 11.6569 17.6595 11.7871 18.0957C11.9238 18.5319 12.0085 18.9583 12.041 19.375C11.7676 19.6354 11.3932 19.8372 10.918 19.9805C10.4492 20.1237 9.95117 20.1953 9.42383 20.1953C8.88346 20.1953 8.38867 20.1204 7.93945 19.9707C7.49674 19.821 7.17448 19.6126 6.97266 19.3457C7.00521 18.6882 7.16797 18.0534 7.46094 17.4414L5.72266 11.1621L5 8.20312L4.66797 8.25195L5.14648 11.5625C5.12044 12.7148 5.07812 13.8867 5.01953 15.0781C4.96094 16.2695 4.89583 17.2135 4.82422 17.9102H4.83398C4.7819 18.3203 4.64193 18.6849 4.41406 19.0039C4.19271 19.3164 3.90951 19.5605 3.56445 19.7363C3.22591 19.9121 2.85807 20 2.46094 20C1.41927 20 0.667318 19.5508 0.205078 18.6523C0.192057 18.5221 0.185547 18.4212 0.185547 18.3496Z" fill="#FF6814"/>
<path d="M0.3125 17.4316L1.27774 17.6931L1.27906 17.6881L0.3125 17.4316ZM0.654297 16.6406L0.838585 15.6578L0.198945 15.5378L-0.169745 16.0741L0.654297 16.6406ZM1.5918 16.8164L1.40751 17.7993L2.46221 17.997L2.58521 16.931L1.5918 16.8164ZM2.64648 7.67578L3.63989 7.79041L3.75146 6.82348L2.78791 6.68583L2.64648 7.67578ZM1.14258 7.46094L0.207795 7.81616L0.417297 8.36748L1.00116 8.45089L1.14258 7.46094ZM1.16211 5.41016L0.735491 4.50572L0.371462 4.67744L0.227891 5.05345L1.16211 5.41016ZM2.92969 5.01953L3.04608 6.01276L3.05278 6.01193L2.92969 5.01953ZM7.40234 4.90234L7.8181 3.99287L7.63404 3.90873L7.43174 3.90278L7.40234 4.90234ZM7.74414 5.05859L8.68657 4.72418L8.54498 4.32515L8.1599 4.14912L7.74414 5.05859ZM8.33008 7.13867L7.36028 7.38273L7.36226 7.39031L8.33008 7.13867ZM9.61914 12.3145L8.64777 12.5522L8.64997 12.5609L9.61914 12.3145ZM9.94141 13.623L8.96902 13.8564L10.9054 13.889L9.94141 13.623ZM11.0938 8.81836L10.119 8.5948L10.1171 8.60338L11.0938 8.81836ZM11.3379 7.75391V6.75391H10.5413L10.3632 7.53035L11.3379 7.75391ZM11.3867 7.75391V8.75391L11.553 6.76784L11.3867 7.75391ZM9.76562 7.48047L8.84648 7.87439L9.06137 8.37581L9.5993 8.46654L9.76562 7.48047ZM9.63867 5.41992L9.33425 4.46738L8.78846 4.64181L8.66296 5.20088L9.63867 5.41992ZM11.6113 4.99023L11.4896 3.99767L11.4885 3.99781L11.6113 4.99023ZM15.6641 4.90234L16.0798 3.99287L15.9011 3.91119L15.7048 3.90318L15.6641 4.90234ZM16.0059 5.05859L16.9699 4.79266L16.8458 4.34304L16.4216 4.14912L16.0059 5.05859ZM17.1973 10.5566L16.2123 10.7292L16.2129 10.7326L17.1973 10.5566ZM18.0664 16.4746L17.0722 16.5827L17.0735 16.5938L18.0664 16.4746ZM18.0957 16.7188L17.1028 16.8379L17.1042 16.849L17.1058 16.8602L18.0957 16.7188ZM18.1445 17.1875L17.1493 17.2846L17.1495 17.287L18.1445 17.1875ZM18.0957 18.8086L19.0708 19.0302L19.0732 19.0196L19.0754 19.009L18.0957 18.8086ZM17.5684 19.873L17.9479 20.7982L18.1571 20.7124L18.3091 20.5449L17.5684 19.873ZM16.7676 20.1074L16.5847 19.1243L16.5713 19.1268L16.558 19.1296L16.7676 20.1074ZM14.7363 20.0684L14.9664 19.0951L14.9533 19.0922L14.7363 20.0684ZM14.0332 19.7168L13.0453 19.5615L12.9797 19.9788L13.2332 20.3168L14.0332 19.7168ZM14.3848 17.4805L15.3726 17.6358L15.3922 17.5111L15.3802 17.3855L14.3848 17.4805ZM13.7988 11.3379L12.7989 11.323L12.7981 11.378L12.8033 11.4328L13.7988 11.3379ZM13.8477 8.06641L14.8475 8.08133L14.8627 7.06641H13.8477V8.06641ZM13.5449 8.06641V7.06641H12.6776L12.555 7.92498L13.5449 8.06641ZM13.0664 11.416L14.0318 11.6767L14.0477 11.6178L14.0564 11.5574L13.0664 11.416ZM11.3184 16.9043L10.3921 16.5273L10.2198 16.9506L10.4272 17.358L11.3184 16.9043ZM11.7871 18.0957L10.8288 18.3818L10.8329 18.3948L11.7871 18.0957ZM12.041 19.375L12.7307 20.0991L13.075 19.7712L13.038 19.2971L12.041 19.375ZM10.918 19.9805L10.6294 19.023L10.6258 19.0241L10.918 19.9805ZM7.93945 19.9707L7.61905 20.918L7.62323 20.9194L7.93945 19.9707ZM6.97266 19.3457L5.97388 19.2963L5.95592 19.6591L6.175 19.9488L6.97266 19.3457ZM7.46094 17.4414L8.36291 17.8732L8.52459 17.5355L8.42469 17.1746L7.46094 17.4414ZM5.72266 11.1621L4.75121 11.3994L4.75483 11.4142L4.7589 11.4289L5.72266 11.1621ZM5 8.20312L5.97145 7.96587L5.75541 7.08128L4.85451 7.21377L5 8.20312ZM4.66797 8.25195L4.52247 7.26259L3.53555 7.40773L3.67825 8.39501L4.66797 8.25195ZM5.14648 11.5625L6.14623 11.5851L6.14811 11.5019L6.1362 11.4194L5.14648 11.5625ZM4.82422 17.9102L3.82946 17.8079L3.71614 18.9102H4.82422V17.9102ZM4.83398 17.9102L5.82602 18.0361L5.969 16.9102H4.83398V17.9102ZM4.41406 19.0039L3.60032 18.4227L3.59804 18.4259L4.41406 19.0039ZM3.56445 19.7363L3.11051 18.8453L3.10364 18.8488L3.56445 19.7363ZM0.205078 18.6523L-0.789959 18.7518L-0.771054 18.9409L-0.684135 19.1098L0.205078 18.6523ZM1.18555 18.3496C1.18555 18.1453 1.21431 17.9272 1.27773 17.6931L-0.652726 17.1702C-0.758585 17.5611 -0.814453 17.955 -0.814453 18.3496H1.18555ZM1.27906 17.6881C1.3428 17.4478 1.41645 17.2972 1.47834 17.2072L-0.169745 16.0741C-0.394319 16.4007 -0.548526 16.7774 -0.654062 17.1752L1.27906 17.6881ZM0.470008 17.6235L1.40751 17.7993L1.77609 15.8335L0.838585 15.6578L0.470008 17.6235ZM2.58521 16.931L3.63989 7.79041L1.65308 7.56116L0.598388 16.7018L2.58521 16.931ZM2.78791 6.68583L1.284 6.47099L1.00116 8.45089L2.50506 8.66573L2.78791 6.68583ZM2.07736 7.10572C1.99552 6.89036 1.95703 6.67852 1.95703 6.46484H-0.0429688C-0.0429688 6.92825 0.0422355 7.38047 0.207795 7.81616L2.07736 7.10572ZM1.95703 6.46484C1.95703 6.25449 1.99829 6.02362 2.09633 5.76686L0.227891 5.05345C0.052489 5.51284 -0.0429688 5.98509 -0.0429688 6.46484H1.95703ZM1.58873 6.31459C1.77511 6.22667 2.22283 6.10921 3.04608 6.01273L2.8133 4.02633C1.96987 4.12517 1.23921 4.26812 0.735491 4.50572L1.58873 6.31459ZM3.05278 6.01193C3.86316 5.91141 4.56618 5.86328 5.16602 5.86328V3.86328C4.46377 3.86328 3.6759 3.91932 2.8066 4.02714L3.05278 6.01193ZM5.16602 5.86328C5.75834 5.86328 6.49329 5.87604 7.37294 5.90191L7.43174 3.90278C6.54056 3.87656 5.78462 3.86328 5.16602 3.86328V5.86328ZM6.98658 5.81182L7.32838 5.96807L8.1599 4.14912L7.8181 3.99287L6.98658 5.81182ZM6.80171 5.393C6.92759 5.74774 7.11309 6.40031 7.36031 7.38272L9.29984 6.89463C9.05228 5.91089 8.84715 5.17674 8.68657 4.72418L6.80171 5.393ZM7.36226 7.39031C7.61414 8.3591 8.04228 10.078 8.64781 12.5522L10.5905 12.0767C9.98506 9.60302 9.55383 7.87137 9.2979 6.88704L7.36226 7.39031ZM8.64997 12.5609C8.74628 12.9397 8.85261 13.3714 8.96902 13.8564L10.9138 13.3897C10.7958 12.8981 10.6873 12.4575 10.5883 12.0681L8.64997 12.5609ZM10.9054 13.889C11.2248 12.731 11.6133 11.1095 12.0704 9.03334L10.1171 8.60338C9.6627 10.6678 9.28297 12.2495 8.97741 13.3571L10.9054 13.889ZM12.0684 9.04191L12.3126 7.97746L10.3632 7.53035L10.1191 8.59481L12.0684 9.04191ZM11.3379 8.75391H11.3867V6.75391H11.3379V8.75391ZM11.553 6.76784L9.93195 6.4944L9.5993 8.46654L11.2204 8.73998L11.553 6.76784ZM10.6848 7.08655C10.5845 6.85268 10.5312 6.59679 10.5312 6.30859H8.53125C8.53125 6.85373 8.63421 7.37909 8.84648 7.87439L10.6848 7.08655ZM10.5312 6.30859C10.5312 6.12151 10.5559 5.89959 10.6144 5.63896L8.66296 5.20088C8.57823 5.57828 8.53125 5.94881 8.53125 6.30859H10.5312ZM9.94309 6.37246C10.5132 6.19026 11.1098 6.05996 11.7342 5.98266L11.4885 3.99781C10.7456 4.08978 10.0272 4.24594 9.33425 4.46738L9.94309 6.37246ZM11.7331 5.9828C12.3767 5.90387 13.0874 5.86328 13.8672 5.86328V3.86328C13.0194 3.86328 12.2262 3.90733 11.4896 3.99767L11.7331 5.9828ZM13.8672 5.86328H14.1895V3.86328H13.8672V5.86328ZM14.1895 5.86328C14.514 5.86328 14.9895 5.87564 15.6233 5.90151L15.7048 3.90318C15.0626 3.87696 14.555 3.86328 14.1895 3.86328V5.86328ZM15.2483 5.81182L15.5901 5.96807L16.4216 4.14912L16.0798 3.99287L15.2483 5.81182ZM15.0419 5.32452C15.4475 6.79483 15.8382 8.59444 16.2123 10.7292L18.1823 10.384C17.8011 8.20894 17.3976 6.34319 16.9699 4.79266L15.0419 5.32452ZM16.2129 10.7326C16.5938 12.863 16.8799 14.8126 17.0723 16.5827L19.0606 16.3666C18.8623 14.5428 18.569 12.5472 18.1817 10.3806L16.2129 10.7326ZM17.0735 16.5938L17.1028 16.8379L19.0886 16.5996L19.0593 16.3555L17.0735 16.5938ZM17.1058 16.8602C17.1051 16.8559 17.106 16.8617 17.1087 16.8859C17.1111 16.9071 17.1143 16.9362 17.1182 16.9737C17.126 17.0487 17.1363 17.152 17.1493 17.2846L19.1398 17.0904C19.1151 16.837 19.0962 16.6511 19.0857 16.5773L17.1058 16.8602ZM17.1495 17.287C17.1725 17.5172 17.1836 17.7345 17.1836 17.9395H19.1836C19.1836 17.6626 19.1686 17.3787 19.1396 17.088L17.1495 17.287ZM17.1836 17.9395C17.1836 18.1652 17.1611 18.3878 17.116 18.6082L19.0754 19.009C19.1475 18.6565 19.1836 18.2996 19.1836 17.9395H17.1836ZM17.1206 18.587C17.0547 18.877 16.9481 19.0684 16.8276 19.2012L18.3091 20.5449C18.6964 20.1178 18.9414 19.5996 19.0708 19.0302L17.1206 18.587ZM17.1888 18.9479C17.0006 19.0251 16.7998 19.0843 16.5847 19.1243L16.9505 21.0906C17.2953 21.0264 17.6283 20.9293 17.9479 20.7982L17.1888 18.9479ZM16.558 19.1296C16.3706 19.1698 16.1247 19.1953 15.8105 19.1953V21.1953C16.2256 21.1953 16.6177 21.1622 16.9771 21.0852L16.558 19.1296ZM15.8105 19.1953C15.532 19.1953 15.2511 19.1625 14.9664 19.0952L14.5063 21.0415C14.9377 21.1435 15.3729 21.1953 15.8105 21.1953V19.1953ZM14.9533 19.0922C14.8936 19.0789 14.8467 19.0657 14.8109 19.0538C14.7748 19.0417 14.7537 19.0322 14.7441 19.0274C14.7205 19.0157 14.7724 19.0358 14.8332 19.1168L13.2332 20.3168C13.5729 20.7698 14.1086 20.9533 14.5194 21.0445L14.9533 19.0922ZM15.0211 19.8721L15.3726 17.6358L13.3969 17.3252L13.0453 19.5615L15.0211 19.8721ZM15.3802 17.3855L14.7943 11.2429L12.8033 11.4328L13.3893 17.5754L15.3802 17.3855ZM14.7987 11.3528L14.8475 8.08133L12.8478 8.05148L12.7989 11.323L14.7987 11.3528ZM13.8477 7.06641H13.5449V9.06641H13.8477V7.06641ZM12.555 7.92498L12.0765 11.2746L14.0564 11.5574L14.5349 8.20783L12.555 7.92498ZM12.101 11.1554C11.467 13.5037 10.8967 15.2876 10.3921 16.5273L12.2446 17.2813C12.7947 15.9299 13.3898 14.0549 14.0318 11.6767L12.101 11.1554ZM10.4272 17.358C10.5788 17.6558 10.7137 17.9959 10.8289 18.3817L12.7453 17.8097C12.6001 17.3232 12.4225 16.869 12.2095 16.4506L10.4272 17.358ZM10.8329 18.3948C10.9492 18.7657 11.0179 19.118 11.0441 19.4529L13.038 19.2971C12.999 18.7987 12.8985 18.2981 12.7413 17.7966L10.8329 18.3948ZM11.3514 18.6509C11.2215 18.7746 10.9999 18.9113 10.6294 19.023L11.2065 20.9379C11.7865 20.7631 12.3137 20.4963 12.7307 20.0991L11.3514 18.6509ZM10.6258 19.0241C10.2586 19.1363 9.85964 19.1953 9.42383 19.1953V21.1953C10.0427 21.1953 10.6398 21.1111 11.2102 20.9368L10.6258 19.0241ZM9.42383 19.1953C8.97602 19.1953 8.58968 19.1334 8.25568 19.022L7.62323 20.9194C8.18767 21.1075 8.79091 21.1953 9.42383 21.1953V19.1953ZM8.25986 19.0234C7.93436 18.9133 7.81191 18.7976 7.77032 18.7426L6.175 19.9488C6.53705 20.4277 7.05913 20.7286 7.61905 20.918L8.25986 19.0234ZM7.97143 19.3951C7.99722 18.8743 8.12548 18.3692 8.36291 17.8732L6.55897 17.0096C6.21046 17.7376 6.0132 18.502 5.97388 19.2963L7.97143 19.3951ZM8.42469 17.1746L6.68641 10.8953L4.7589 11.4289L6.49718 17.7082L8.42469 17.1746ZM6.6941 10.9249L5.97145 7.96587L4.02855 8.44038L4.75121 11.3994L6.6941 10.9249ZM4.85451 7.21377L4.52247 7.26259L4.81346 9.24131L5.14549 9.19248L4.85451 7.21377ZM3.67825 8.39501L4.15677 11.7056L6.1362 11.4194L5.65768 8.1089L3.67825 8.39501ZM4.14674 11.5399C4.1209 12.6831 4.07891 13.8461 4.02074 15.029L6.01832 15.1272C6.07734 13.9273 6.11998 12.7466 6.14623 11.5851L4.14674 11.5399ZM4.02074 15.029C3.9625 16.2131 3.89844 17.137 3.82946 17.8079L5.81898 18.0124C5.89323 17.2901 5.95937 16.326 6.01832 15.1272L4.02074 15.029ZM4.82422 18.9102H4.83398V16.9102H4.82422V18.9102ZM3.84195 17.7842C3.80954 18.0394 3.72672 18.2457 3.60033 18.4227L5.2278 19.5851C5.55714 19.1241 5.75426 18.6012 5.82602 18.0361L3.84195 17.7842ZM3.59804 18.4259C3.47135 18.6047 3.31301 18.7421 3.11053 18.8453L4.01838 20.6274C4.506 20.379 4.91406 20.0281 5.23009 19.5819L3.59804 18.4259ZM3.10364 18.8488C2.91338 18.9476 2.70448 19 2.46094 19V21C3.01166 21 3.53844 20.8766 4.02527 20.6238L3.10364 18.8488ZM2.46094 19C2.08629 19 1.82243 18.9204 1.62858 18.8046C1.43646 18.6898 1.25329 18.5039 1.09429 18.1949L-0.684135 19.1098C-0.380894 19.6992 0.0430289 20.1871 0.602867 20.5216C1.16097 20.855 1.79392 21 2.46094 21V19ZM1.20012 18.5528C1.18818 18.4335 1.18555 18.3714 1.18555 18.3496H-0.814453C-0.814453 18.4711 -0.804064 18.6108 -0.789959 18.7518L1.20012 18.5528Z" fill="#F9D44D" mask="url(#path-1-outside-1_23_685)"/>
<mask id="path-3-outside-2_23_685" maskUnits="userSpaceOnUse" x="10" y="20" width="23" height="19" fill="black">
<rect fill="white" x="10" y="20" width="23" height="19"/>
<path d="M14.8027 32.8008C14.334 30.8672 13.9206 29.2493 13.5625 27.9473C13.2044 26.6387 12.918 25.8249 12.7031 25.5059L11.7266 25.4375C11.5378 24.9427 11.4043 24.334 11.3262 23.6113C11.4368 23.2533 11.6452 22.944 11.9512 22.6836C12.2572 22.4167 12.6152 22.2148 13.0254 22.0781C13.4355 21.9414 13.849 21.873 14.2656 21.873C15.2161 21.873 15.9258 22.3092 16.3945 23.1816C16.6094 23.5788 16.7917 24.0573 16.9414 24.6172C17.0911 25.1706 17.2311 25.8281 17.3613 26.5898C17.5762 27.8724 17.7259 29.0247 17.8105 30.0469C17.8952 31.0625 17.9635 32.1432 18.0156 33.2891L18.0547 34.168H18.2012C18.3639 33.8099 18.543 33.0384 18.7383 31.8535C18.9336 30.6686 19.1029 29.4154 19.2461 28.0938C19.3893 26.7656 19.4674 25.7793 19.4805 25.1348L18.25 24.9492C18.1589 24.6042 18.1003 24.2949 18.0742 24.0215C18.0482 23.748 18.0352 23.416 18.0352 23.0254C18.1719 22.8561 18.3997 22.6803 18.7188 22.498C19.0378 22.3158 19.4089 22.1628 19.832 22.0391C20.2552 21.9154 20.6751 21.8535 21.0918 21.8535C21.6517 21.8535 22.1562 21.9479 22.6055 22.1367C23.0612 22.319 23.4225 22.5924 23.6895 22.957C23.9629 23.3216 24.1029 23.7676 24.1094 24.2949V25.7988C24.4023 26.9382 24.6562 28.276 24.8711 29.8125C25.0924 31.3424 25.2552 32.791 25.3594 34.1582H25.4668C25.623 33.7936 25.7988 33.0189 25.9941 31.834C26.196 30.6426 26.3717 29.3893 26.5215 28.0742C26.6712 26.7526 26.7493 25.7728 26.7559 25.1348L25.6035 24.9492C25.5124 24.6042 25.4538 24.2949 25.4277 24.0215C25.4017 23.748 25.3887 23.416 25.3887 23.0254C25.5189 22.8561 25.7467 22.6803 26.0723 22.498C26.3978 22.3158 26.7721 22.1628 27.1953 22.0391C27.625 21.9154 28.0482 21.8535 28.4648 21.8535C29.3177 21.8535 29.9557 22.0749 30.3789 22.5176C30.8021 22.9603 31.0137 23.6341 31.0137 24.5391C31.0137 25.3984 30.8704 26.5052 30.584 27.8594C30.2975 29.2135 29.9395 30.4863 29.5098 31.6777C29.1387 32.7194 28.7741 33.6211 28.416 34.3828C28.0579 35.138 27.6152 35.8802 27.0879 36.6094C26.873 36.8307 26.5898 36.9837 26.2383 37.0684C25.8932 37.153 25.5352 37.1953 25.1641 37.1953C23.8815 37.1953 22.9342 36.9479 22.3223 36.4531L22.5859 34.4512L21.9512 31.1602C21.8014 30.2943 21.7038 29.6042 21.6582 29.0898L21.5312 29.0801L21.502 30.3203C21.2871 31.5964 21.0234 32.7812 20.7109 33.875C20.4049 34.9622 20.0534 35.8737 19.6562 36.6094C19.4674 36.8242 19.207 36.974 18.875 37.0586C18.543 37.1497 18.2044 37.1953 17.8594 37.1953C16.5247 37.1953 15.584 36.9512 15.0371 36.4629L15.252 34.627L14.8027 32.8008Z"/>
</mask>
<path d="M14.8027 32.8008C14.334 30.8672 13.9206 29.2493 13.5625 27.9473C13.2044 26.6387 12.918 25.8249 12.7031 25.5059L11.7266 25.4375C11.5378 24.9427 11.4043 24.334 11.3262 23.6113C11.4368 23.2533 11.6452 22.944 11.9512 22.6836C12.2572 22.4167 12.6152 22.2148 13.0254 22.0781C13.4355 21.9414 13.849 21.873 14.2656 21.873C15.2161 21.873 15.9258 22.3092 16.3945 23.1816C16.6094 23.5788 16.7917 24.0573 16.9414 24.6172C17.0911 25.1706 17.2311 25.8281 17.3613 26.5898C17.5762 27.8724 17.7259 29.0247 17.8105 30.0469C17.8952 31.0625 17.9635 32.1432 18.0156 33.2891L18.0547 34.168H18.2012C18.3639 33.8099 18.543 33.0384 18.7383 31.8535C18.9336 30.6686 19.1029 29.4154 19.2461 28.0938C19.3893 26.7656 19.4674 25.7793 19.4805 25.1348L18.25 24.9492C18.1589 24.6042 18.1003 24.2949 18.0742 24.0215C18.0482 23.748 18.0352 23.416 18.0352 23.0254C18.1719 22.8561 18.3997 22.6803 18.7188 22.498C19.0378 22.3158 19.4089 22.1628 19.832 22.0391C20.2552 21.9154 20.6751 21.8535 21.0918 21.8535C21.6517 21.8535 22.1562 21.9479 22.6055 22.1367C23.0612 22.319 23.4225 22.5924 23.6895 22.957C23.9629 23.3216 24.1029 23.7676 24.1094 24.2949V25.7988C24.4023 26.9382 24.6562 28.276 24.8711 29.8125C25.0924 31.3424 25.2552 32.791 25.3594 34.1582H25.4668C25.623 33.7936 25.7988 33.0189 25.9941 31.834C26.196 30.6426 26.3717 29.3893 26.5215 28.0742C26.6712 26.7526 26.7493 25.7728 26.7559 25.1348L25.6035 24.9492C25.5124 24.6042 25.4538 24.2949 25.4277 24.0215C25.4017 23.748 25.3887 23.416 25.3887 23.0254C25.5189 22.8561 25.7467 22.6803 26.0723 22.498C26.3978 22.3158 26.7721 22.1628 27.1953 22.0391C27.625 21.9154 28.0482 21.8535 28.4648 21.8535C29.3177 21.8535 29.9557 22.0749 30.3789 22.5176C30.8021 22.9603 31.0137 23.6341 31.0137 24.5391C31.0137 25.3984 30.8704 26.5052 30.584 27.8594C30.2975 29.2135 29.9395 30.4863 29.5098 31.6777C29.1387 32.7194 28.7741 33.6211 28.416 34.3828C28.0579 35.138 27.6152 35.8802 27.0879 36.6094C26.873 36.8307 26.5898 36.9837 26.2383 37.0684C25.8932 37.153 25.5352 37.1953 25.1641 37.1953C23.8815 37.1953 22.9342 36.9479 22.3223 36.4531L22.5859 34.4512L21.9512 31.1602C21.8014 30.2943 21.7038 29.6042 21.6582 29.0898L21.5312 29.0801L21.502 30.3203C21.2871 31.5964 21.0234 32.7812 20.7109 33.875C20.4049 34.9622 20.0534 35.8737 19.6562 36.6094C19.4674 36.8242 19.207 36.974 18.875 37.0586C18.543 37.1497 18.2044 37.1953 17.8594 37.1953C16.5247 37.1953 15.584 36.9512 15.0371 36.4629L15.252 34.627L14.8027 32.8008Z" fill="#FF6814"/>
<path d="M14.8027 32.8008L13.8309 33.0364L13.8317 33.0396L14.8027 32.8008ZM13.5625 27.9473L12.598 28.2112L12.5983 28.2124L13.5625 27.9473ZM12.7031 25.5059L13.5326 24.9473L13.2599 24.5424L12.773 24.5083L12.7031 25.5059ZM11.7266 25.4375L10.7923 25.794L11.0199 26.3905L11.6567 26.4351L11.7266 25.4375ZM11.3262 23.6113L10.3708 23.316L10.3098 23.5134L10.332 23.7188L11.3262 23.6113ZM11.9512 22.6836L12.5993 23.4452L12.6085 23.4372L11.9512 22.6836ZM16.3945 23.1816L15.5136 23.655L15.515 23.6575L16.3945 23.1816ZM16.9414 24.6172L15.9754 24.8756L15.9761 24.8784L16.9414 24.6172ZM17.3613 26.5898L18.3476 26.4246L18.347 26.4213L17.3613 26.5898ZM17.8105 30.0469L16.814 30.1294L16.814 30.1299L17.8105 30.0469ZM18.0156 33.2891L19.0146 33.2447L19.0146 33.2437L18.0156 33.2891ZM18.0547 34.168L17.0557 34.2124L17.0981 35.168H18.0547V34.168ZM18.2012 34.168V35.168H18.8451L19.1115 34.5818L18.2012 34.168ZM19.2461 28.0938L20.2403 28.2015L20.2403 28.201L19.2461 28.0938ZM19.4805 25.1348L20.4803 25.155L20.498 24.2769L19.6296 24.1459L19.4805 25.1348ZM18.25 24.9492L17.2832 25.2046L17.451 25.84L18.1009 25.938L18.25 24.9492ZM18.0352 23.0254L17.2572 22.3971L17.0352 22.672V23.0254H18.0352ZM22.6055 22.1367L22.218 23.0586L22.226 23.062L22.2341 23.0652L22.6055 22.1367ZM23.6895 22.957L22.8825 23.5478L22.8895 23.557L23.6895 22.957ZM24.1094 24.2949L25.1095 24.2949L25.1093 24.2826L24.1094 24.2949ZM24.1094 25.7988H23.1094V25.9253L23.1409 26.0479L24.1094 25.7988ZM24.8711 29.8125L23.8807 29.951L23.8814 29.9557L24.8711 29.8125ZM25.3594 34.1582L24.3623 34.2342L24.4327 35.1582H25.3594V34.1582ZM25.4668 34.1582V35.1582H26.1262L26.3859 34.5521L25.4668 34.1582ZM25.9941 31.834L25.0082 31.667L25.0075 31.6713L25.9941 31.834ZM26.5215 28.0742L27.5151 28.1873L27.5151 28.1868L26.5215 28.0742ZM26.7559 25.1348L27.7558 25.145L27.7646 24.2843L26.9148 24.1475L26.7559 25.1348ZM25.6035 24.9492L24.6367 25.2046L24.8027 25.8332L25.4445 25.9365L25.6035 24.9492ZM25.3887 23.0254L24.596 22.4157L24.3887 22.6853V23.0254H25.3887ZM27.1953 22.0391L26.9187 21.0781L26.9147 21.0792L27.1953 22.0391ZM29.5098 31.6777L28.5691 31.3385L28.5678 31.3421L29.5098 31.6777ZM28.416 34.3828L29.3196 34.8112L29.321 34.8082L28.416 34.3828ZM27.0879 36.6094L27.8055 37.3059L27.8558 37.254L27.8982 37.1954L27.0879 36.6094ZM26.2383 37.0684L26.0042 36.0961L26.0001 36.0971L26.2383 37.0684ZM22.3223 36.4531L21.3308 36.3225L21.2576 36.8783L21.6935 37.2308L22.3223 36.4531ZM22.5859 34.4512L23.5774 34.5818L23.5985 34.421L23.5678 34.2618L22.5859 34.4512ZM21.9512 31.1602L20.9658 31.3306L20.9674 31.3401L20.9693 31.3495L21.9512 31.1602ZM21.6582 29.0898L22.6543 29.0016L22.5795 28.1578L21.7349 28.0928L21.6582 29.0898ZM21.5312 29.0801L21.6079 28.083L20.5564 28.0021L20.5315 29.0565L21.5312 29.0801ZM21.502 30.3203L22.4881 30.4863L22.5 30.4156L22.5017 30.3439L21.502 30.3203ZM20.7109 33.875L19.7494 33.6003L19.7483 33.6041L20.7109 33.875ZM19.6562 36.6094L20.4074 37.2695L20.4823 37.1843L20.5362 37.0844L19.6562 36.6094ZM18.875 37.0586L18.628 36.0896L18.6191 36.0918L18.6103 36.0943L18.875 37.0586ZM15.0371 36.4629L14.0439 36.3467L13.9835 36.8628L14.3711 37.2088L15.0371 36.4629ZM15.252 34.627L16.2452 34.7432L16.2662 34.5636L16.223 34.3881L15.252 34.627ZM15.7746 32.5652C15.3044 30.6258 14.8884 28.9974 14.5267 27.6821L12.5983 28.2124C12.9527 29.5013 13.3635 31.1085 13.8309 33.0364L15.7746 32.5652ZM14.527 27.6833C14.3448 27.0175 14.1766 26.4617 14.0224 26.0234C13.877 25.6104 13.7171 25.2213 13.5326 24.9473L11.8737 26.0645C11.904 26.1095 11.9948 26.2867 12.1358 26.6875C12.268 27.0631 12.4221 27.5685 12.598 28.2112L14.527 27.6833ZM12.773 24.5083L11.7964 24.4399L11.6567 26.4351L12.6333 26.5034L12.773 24.5083ZM12.6609 25.081C12.5116 24.6898 12.3924 24.1705 12.3204 23.5038L10.332 23.7188C10.4161 24.4975 10.564 25.1957 10.7923 25.794L12.6609 25.081ZM12.2816 23.9066C12.3321 23.7432 12.427 23.5917 12.5993 23.4451L11.3031 21.9221C10.8633 22.2963 10.5416 22.7633 10.3708 23.316L12.2816 23.9066ZM12.6085 23.4372C12.8085 23.2627 13.0487 23.1244 13.3416 23.0268L12.7092 21.1294C12.1817 21.3052 11.7058 21.5706 11.2938 21.93L12.6085 23.4372ZM13.3416 23.0268C13.6537 22.9228 13.9605 22.873 14.2656 22.873V20.873C13.7375 20.873 13.2174 20.96 12.7092 21.1294L13.3416 23.0268ZM14.2656 22.873C14.5827 22.873 14.811 22.9439 14.9871 23.0521C15.1653 23.1617 15.347 23.3448 15.5136 23.655L17.2754 22.7083C16.9733 22.1461 16.5658 21.6749 16.0344 21.3483C15.5008 21.0203 14.8991 20.873 14.2656 20.873V22.873ZM15.515 23.6575C15.6838 23.9695 15.8405 24.3711 15.9754 24.8755L17.9075 24.3588C17.7429 23.7435 17.5349 23.188 17.2741 22.7058L15.515 23.6575ZM15.9761 24.8784C16.1153 25.3928 16.2491 26.0179 16.3756 26.7583L18.347 26.4213C18.2132 25.6384 18.067 24.9483 17.9067 24.356L15.9761 24.8784ZM16.3751 26.7551C16.5865 28.0171 16.7321 29.1411 16.814 30.1294L18.8071 29.9644C18.7197 28.9084 18.5659 27.7277 18.3476 26.4246L16.3751 26.7551ZM16.814 30.1299C16.8975 31.1316 16.9651 32.1997 17.0167 33.3345L19.0146 33.2437C18.962 32.0868 18.8929 30.9934 18.8071 29.9638L16.814 30.1299ZM17.0166 33.3335L17.0557 34.2124L19.0537 34.1236L19.0146 33.2447L17.0166 33.3335ZM18.0547 35.168H18.2012V33.168H18.0547V35.168ZM19.1115 34.5818C19.3385 34.0825 19.5337 33.1765 19.725 32.0162L17.7516 31.6909C17.5522 32.9003 17.3894 33.5373 17.2908 33.7542L19.1115 34.5818ZM19.725 32.0162C19.9236 30.8112 20.0953 29.5396 20.2403 28.2015L18.2519 27.986C18.1105 29.2912 17.9436 30.526 17.7516 31.6909L19.725 32.0162ZM20.2403 28.201C20.3841 26.8677 20.4663 25.8453 20.4803 25.155L18.4807 25.1146C18.4686 25.7132 18.3945 26.6636 18.2519 27.9865L20.2403 28.201ZM19.6296 24.1459L18.3991 23.9604L18.1009 25.938L19.3314 26.1236L19.6296 24.1459ZM19.2168 24.6938C19.1357 24.3868 19.0893 24.1326 19.0697 23.9267L17.0787 24.1163C17.1112 24.4572 17.182 24.8216 17.2832 25.2046L19.2168 24.6938ZM19.0697 23.9267C19.0476 23.6948 19.0352 23.3964 19.0352 23.0254H17.0352C17.0352 23.4357 17.0487 23.8013 17.0787 24.1163L19.0697 23.9267ZM18.8131 23.6537C18.8358 23.6256 18.9399 23.5234 19.2149 23.3663L18.2226 21.6298C17.8596 21.8373 17.5079 22.0866 17.2572 22.3971L18.8131 23.6537ZM19.2149 23.3663C19.454 23.2297 19.7502 23.1048 20.1126 22.9989L19.5515 21.0792C19.0675 21.2207 18.6216 21.4018 18.2226 21.6298L19.2149 23.3663ZM20.1126 22.9989C20.4499 22.9003 20.7755 22.8535 21.0918 22.8535V20.8535C20.5748 20.8535 20.0605 20.9304 19.5515 21.0792L20.1126 22.9989ZM21.0918 22.8535C21.5383 22.8535 21.9084 22.9285 22.218 23.0586L22.9929 21.2148C22.4041 20.9674 21.7651 20.8535 21.0918 20.8535V22.8535ZM22.2341 23.0652C22.5315 23.1841 22.7358 23.3473 22.8826 23.5478L24.4963 22.3663C24.1092 21.8376 23.5909 21.4539 22.9769 21.2082L22.2341 23.0652ZM22.8895 23.557C23.0163 23.7262 23.1051 23.9575 23.1095 24.3073L25.1093 24.2826C25.1006 23.5777 24.9095 22.9171 24.4895 22.357L22.8895 23.557ZM23.1094 24.2949V25.7988H25.1094V24.2949H23.1094ZM23.1409 26.0479C23.4221 27.1414 23.6696 28.4408 23.8807 29.951L25.8615 29.674C25.6429 28.1113 25.3826 26.7349 25.0779 25.5498L23.1409 26.0479ZM23.8814 29.9557C24.0999 31.4661 24.26 32.8921 24.3623 34.2342L26.3565 34.0822C26.2504 32.6899 26.085 31.2188 25.8608 29.6693L23.8814 29.9557ZM25.3594 35.1582H25.4668V33.1582H25.3594V35.1582ZM26.3859 34.5521C26.5981 34.0571 26.7891 33.1599 26.9808 31.9966L25.0075 31.6713C24.8086 32.8778 24.648 33.5301 24.5477 33.7643L26.3859 34.5521ZM26.9801 32.001C27.1852 30.7901 27.3635 29.5188 27.5151 28.1873L25.5279 27.9611C25.38 29.2598 25.2067 30.495 25.0082 31.667L26.9801 32.001ZM27.5151 28.1868C27.6655 26.8593 27.7487 25.8371 27.7558 25.145L25.7559 25.1246C25.75 25.7085 25.6769 26.6459 25.5278 27.9616L27.5151 28.1868ZM26.9148 24.1475L25.7625 23.9619L25.4445 25.9365L26.5969 26.122L26.9148 24.1475ZM26.5704 24.6938C26.4892 24.3868 26.4428 24.1326 26.4232 23.9267L24.4322 24.1163C24.4647 24.4572 24.5355 24.8216 24.6367 25.2046L26.5704 24.6938ZM26.4232 23.9267C26.4011 23.6948 26.3887 23.3964 26.3887 23.0254H24.3887C24.3887 23.4357 24.4022 23.8013 24.4322 24.1163L26.4232 23.9267ZM26.1813 23.6351C26.1793 23.6377 26.2003 23.6106 26.268 23.5584C26.3339 23.5076 26.429 23.4444 26.5609 23.3706L25.5837 21.6255C25.2152 21.8319 24.8487 22.0872 24.596 22.4157L26.1813 23.6351ZM26.5609 23.3706C26.81 23.2311 27.1124 23.1051 27.4759 22.9989L26.9147 21.0792C26.4318 21.2204 25.9856 21.4004 25.5837 21.6255L26.5609 23.3706ZM27.472 23C27.8183 22.9003 28.1483 22.8535 28.4648 22.8535V20.8535C27.948 20.8535 27.4317 20.9304 26.9187 21.0781L27.472 23ZM28.4648 22.8535C29.1544 22.8535 29.4859 23.0306 29.656 23.2086L31.1018 21.8266C30.4256 21.1192 29.481 20.8535 28.4648 20.8535V22.8535ZM29.656 23.2086C29.8322 23.3928 30.0137 23.7701 30.0137 24.5391H32.0137C32.0137 23.4981 31.772 22.5277 31.1018 21.8266L29.656 23.2086ZM30.0137 24.5391C30.0137 25.2999 29.8853 26.3305 29.6056 27.6524L31.5623 28.0663C31.8556 26.68 32.0137 25.4969 32.0137 24.5391H30.0137ZM29.6056 27.6524C29.3278 28.9658 28.9818 30.194 28.5691 31.3385L30.4505 32.017C30.8971 30.7786 31.2672 29.4613 31.5623 28.0663L29.6056 27.6524ZM28.5678 31.3421C28.2044 32.3621 27.8518 33.2324 27.511 33.9574L29.321 34.8082C29.6964 34.0098 30.073 33.0767 30.4518 32.0133L28.5678 31.3421ZM27.5124 33.9544C27.1825 34.6503 26.7718 35.34 26.2776 36.0234L27.8982 37.1954C28.4587 36.4204 28.9334 35.6257 29.3196 34.8112L27.5124 33.9544ZM26.3703 35.9129C26.3086 35.9765 26.204 36.048 26.0042 36.0961L26.4723 38.0406C26.9757 37.9194 27.4375 37.685 27.8055 37.3059L26.3703 35.9129ZM26.0001 36.0971C25.7364 36.1618 25.4585 36.1953 25.1641 36.1953V38.1953C25.6119 38.1953 26.0501 38.1442 26.4765 38.0396L26.0001 36.0971ZM25.1641 36.1953C23.9767 36.1953 23.3033 35.9603 22.951 35.6755L21.6935 37.2308C22.5652 37.9355 23.7863 38.1953 25.1641 38.1953V36.1953ZM23.3137 36.5837L23.5774 34.5818L21.5945 34.3206L21.3308 36.3225L23.3137 36.5837ZM23.5678 34.2618L22.9331 30.9708L20.9693 31.3495L21.604 34.6406L23.5678 34.2618ZM22.9365 30.9898C22.7887 30.1351 22.6963 29.4759 22.6543 29.0016L20.6621 29.1781C20.7112 29.7324 20.8141 30.4535 20.9658 31.3306L22.9365 30.9898ZM21.7349 28.0928L21.6079 28.083L21.4546 30.0771L21.5815 30.0869L21.7349 28.0928ZM20.5315 29.0565L20.5022 30.2967L22.5017 30.3439L22.531 29.1037L20.5315 29.0565ZM20.5158 30.1543C20.3063 31.3985 20.0504 32.5467 19.7494 33.6003L21.6725 34.1497C21.9964 33.0158 22.2679 31.7942 22.4881 30.4863L20.5158 30.1543ZM19.7483 33.6041C19.4558 34.6434 19.1287 35.4815 18.7763 36.1343L20.5362 37.0844C20.9781 36.2659 21.3541 35.2811 21.6735 34.1459L19.7483 33.6041ZM18.9051 35.9493C18.8739 35.9848 18.8041 36.0447 18.628 36.0896L19.122 38.0276C19.61 37.9032 20.061 37.6637 20.4074 37.2695L18.9051 35.9493ZM18.6103 36.0943C18.3647 36.1617 18.1152 36.1953 17.8594 36.1953V38.1953C18.2937 38.1953 18.7213 38.1378 19.1397 38.0229L18.6103 36.0943ZM17.8594 36.1953C16.5902 36.1953 15.9664 35.952 15.7031 35.717L14.3711 37.2088C15.2016 37.9504 16.4593 38.1953 17.8594 38.1953V36.1953ZM16.0303 36.5791L16.2452 34.7432L14.2587 34.5107L14.0439 36.3467L16.0303 36.5791ZM16.223 34.3881L15.7738 32.5619L13.8317 33.0396L14.2809 34.8658L16.223 34.3881Z" fill="#F9D44D" mask="url(#path-3-outside-2_23_685)"/>
</svg>
